<svg width="1920" height="1080" viewBox="0 0 1920 1080" fill="none" xmlns="http://www.w3.org/2000/svg">
<g id="Rocket Illustration" clip-path="url(#clip0_59:453)">
<rect width="1920" height="1080" fill="black"/>
<g id="Group" opacity="0.32">
<g id="Group_2" opacity="0.32">
<g id="Group_3" opacity="0.11">
<path id="Vector" opacity="0.11" d="M72.2474 105.145C72.2474 106.259 71.8051 107.328 71.0176 108.116C70.23 108.903 69.162 109.346 68.0483 109.346C67.4984 109.346 66.9539 109.237 66.4463 109.026C65.9386 108.814 65.4778 108.504 65.0905 108.114C64.7032 107.723 64.397 107.26 64.1896 106.75C63.9822 106.241 63.8776 105.695 63.882 105.145C63.8776 104.595 63.9822 104.05 64.1896 103.54C64.397 103.031 64.7032 102.568 65.0905 102.177C65.4778 101.787 65.9386 101.477 66.4463 101.265C66.9539 101.054 67.4984 100.945 68.0483 100.945C69.162 100.945 70.23 101.387 71.0176 102.175C71.8051 102.963 72.2474 104.031 72.2474 105.145V105.145Z" fill="#A630B0"/>
<path id="Vector_2" opacity="0.11" d="M250.238 105.145C250.242 105.695 250.138 106.241 249.93 106.75C249.723 107.26 249.417 107.723 249.029 108.114C248.642 108.504 248.181 108.814 247.674 109.026C247.166 109.237 246.621 109.346 246.072 109.346C245.515 109.355 244.961 109.252 244.444 109.045C243.927 108.838 243.456 108.53 243.059 108.139C242.662 107.748 242.347 107.282 242.132 106.768C241.917 106.254 241.806 105.703 241.806 105.145C241.806 104.031 242.249 102.963 243.036 102.175C243.824 101.387 244.892 100.945 246.006 100.945C246.561 100.936 247.113 101.038 247.628 101.246C248.143 101.453 248.612 101.762 249.006 102.153C249.4 102.545 249.713 103.011 249.924 103.525C250.136 104.039 250.242 104.59 250.238 105.145V105.145Z" fill="#A630B0"/>
<path id="Vector_3" opacity="0.11" d="M428.228 105.145C428.232 105.695 428.128 106.241 427.92 106.75C427.713 107.26 427.407 107.723 427.02 108.114C426.632 108.504 426.171 108.814 425.664 109.026C425.156 109.237 424.612 109.346 424.062 109.346C423.51 109.346 422.964 109.237 422.455 109.026C421.945 108.815 421.482 108.506 421.093 108.116C420.703 107.726 420.393 107.262 420.182 106.753C419.971 106.243 419.862 105.697 419.862 105.145C419.862 104.031 420.305 102.963 421.093 102.175C421.88 101.387 422.948 100.945 424.062 100.945C424.612 100.945 425.156 101.054 425.664 101.265C426.171 101.477 426.632 101.787 427.02 102.177C427.407 102.568 427.713 103.031 427.92 103.54C428.128 104.05 428.232 104.595 428.228 105.145V105.145Z" fill="#A630B0"/>
<path id="Vector_4" opacity="0.11" d="M606.251 105.145C606.252 106.231 605.832 107.275 605.08 108.059C604.328 108.842 603.302 109.303 602.217 109.346C601.666 109.346 601.12 109.237 600.61 109.026C600.101 108.815 599.638 108.506 599.248 108.116C598.858 107.726 598.549 107.262 598.338 106.753C598.127 106.243 598.018 105.697 598.018 105.145C598.018 104.031 598.461 102.963 599.248 102.175C600.036 101.387 601.104 100.945 602.217 100.945C603.302 100.988 604.328 101.449 605.08 102.232C605.832 103.015 606.252 104.059 606.251 105.145V105.145Z" fill="#A630B0"/>
<path id="Vector_5" opacity="0.11" d="M784.241 105.145C784.241 105.697 784.133 106.243 783.922 106.753C783.711 107.262 783.401 107.726 783.012 108.116C782.622 108.506 782.159 108.815 781.649 109.026C781.14 109.237 780.594 109.346 780.042 109.346C779.492 109.346 778.948 109.237 778.44 109.026C777.932 108.814 777.472 108.504 777.085 108.114C776.697 107.723 776.391 107.26 776.184 106.75C775.976 106.241 775.872 105.695 775.876 105.145C775.872 104.595 775.976 104.05 776.184 103.54C776.391 103.031 776.697 102.568 777.085 102.177C777.472 101.787 777.932 101.477 778.44 101.265C778.948 101.054 779.492 100.945 780.042 100.945C781.156 100.945 782.224 101.387 783.012 102.175C783.799 102.963 784.241 104.031 784.241 105.145V105.145Z" fill="#A630B0"/>
<path id="Vector_6" opacity="0.11" d="M962.232 105.145C962.236 105.695 962.132 106.241 961.924 106.75C961.717 107.26 961.411 107.723 961.023 108.114C960.636 108.504 960.175 108.814 959.668 109.026C959.16 109.237 958.615 109.346 958.066 109.346C957.514 109.346 956.968 109.237 956.459 109.026C955.949 108.815 955.486 108.506 955.096 108.116C954.706 107.726 954.397 107.262 954.186 106.753C953.975 106.243 953.866 105.697 953.866 105.145C953.866 104.031 954.309 102.963 955.096 102.175C955.884 101.387 956.952 100.945 958.066 100.945C958.615 100.945 959.16 101.054 959.668 101.265C960.175 101.477 960.636 101.787 961.023 102.177C961.411 102.568 961.717 103.031 961.924 103.54C962.132 104.05 962.236 104.595 962.232 105.145V105.145Z" fill="#A630B0"/>
<path id="Vector_7" opacity="0.11" d="M1140.22 105.145C1140.23 105.695 1140.12 106.241 1139.91 106.75C1139.71 107.26 1139.4 107.723 1139.01 108.114C1138.63 108.504 1138.17 108.814 1137.66 109.026C1137.15 109.237 1136.61 109.346 1136.06 109.346C1135.5 109.346 1134.96 109.237 1134.45 109.026C1133.94 108.815 1133.48 108.506 1133.09 108.116C1132.7 107.726 1132.39 107.262 1132.18 106.753C1131.97 106.243 1131.86 105.697 1131.86 105.145C1131.86 104.031 1132.3 102.963 1133.09 102.175C1133.87 101.387 1134.94 100.945 1136.06 100.945C1136.61 100.945 1137.15 101.054 1137.66 101.265C1138.17 101.477 1138.63 101.787 1139.01 102.177C1139.4 102.568 1139.71 103.031 1139.91 103.54C1140.12 104.05 1140.23 104.595 1140.22 105.145V105.145Z" fill="#A630B0"/>
<path id="Vector_8" opacity="0.11" d="M1318.25 105.145C1318.25 105.697 1318.14 106.243 1317.93 106.753C1317.71 107.262 1317.41 107.726 1317.02 108.116C1316.63 108.506 1316.16 108.815 1315.65 109.026C1315.14 109.237 1314.6 109.346 1314.05 109.346C1313.49 109.35 1312.94 109.245 1312.43 109.036C1311.92 108.827 1311.45 108.518 1311.06 108.127C1310.66 107.737 1310.35 107.272 1310.14 106.76C1309.92 106.249 1309.81 105.7 1309.81 105.145C1309.81 104.031 1310.26 102.963 1311.04 102.175C1311.83 101.387 1312.9 100.945 1314.01 100.945C1314.57 100.94 1315.12 101.046 1315.63 101.255C1316.14 101.464 1316.61 101.773 1317 102.163C1317.4 102.554 1317.71 103.018 1317.92 103.53C1318.14 104.042 1318.25 104.591 1318.25 105.145V105.145Z" fill="#A630B0"/>
<path id="Vector_9" opacity="0.11" d="M1496.24 105.145C1496.24 106.259 1495.79 107.328 1495.01 108.116C1494.22 108.903 1493.15 109.346 1492.04 109.346C1491.49 109.346 1490.94 109.237 1490.43 109.026C1489.93 108.814 1489.47 108.504 1489.08 108.114C1488.69 107.723 1488.39 107.26 1488.18 106.75C1487.97 106.241 1487.87 105.695 1487.87 105.145C1487.87 104.595 1487.97 104.05 1488.18 103.54C1488.39 103.031 1488.69 102.568 1489.08 102.177C1489.47 101.787 1489.93 101.477 1490.43 101.265C1490.94 101.054 1491.49 100.945 1492.04 100.945C1493.15 100.945 1494.22 101.387 1495.01 102.175C1495.79 102.963 1496.24 104.031 1496.24 105.145V105.145Z" fill="#A630B0"/>
<path id="Vector_10" opacity="0.11" d="M1674.23 105.145C1674.24 106.228 1673.82 107.272 1673.08 108.056C1672.33 108.84 1671.31 109.303 1670.23 109.346C1669.67 109.346 1669.13 109.237 1668.62 109.026C1668.11 108.815 1667.65 108.506 1667.26 108.116C1666.87 107.726 1666.56 107.262 1666.35 106.753C1666.13 106.243 1666.03 105.697 1666.03 105.145C1666.03 104.031 1666.47 102.963 1667.26 102.175C1668.04 101.387 1669.11 100.945 1670.23 100.945C1671.31 100.988 1672.33 101.45 1673.08 102.234C1673.82 103.018 1674.24 104.062 1674.23 105.145V105.145Z" fill="#A630B0"/>
<path id="Vector_11" opacity="0.11" d="M1852.08 105.145C1852.09 105.695 1851.98 106.241 1851.78 106.75C1851.57 107.26 1851.26 107.723 1850.88 108.114C1850.49 108.504 1850.03 108.814 1849.52 109.026C1849.01 109.237 1848.47 109.346 1847.92 109.346C1846.8 109.346 1845.74 108.903 1844.95 108.116C1844.16 107.328 1843.72 106.259 1843.72 105.145C1843.72 104.031 1844.16 102.963 1844.95 102.175C1845.74 101.387 1846.8 100.945 1847.92 100.945C1848.47 100.945 1849.01 101.054 1849.52 101.265C1850.03 101.477 1850.49 101.787 1850.88 102.177C1851.26 102.568 1851.57 103.031 1851.78 103.54C1851.98 104.05 1852.09 104.595 1852.08 105.145V105.145Z" fill="#A630B0"/>
<path id="Vector_12" opacity="0.11" d="M72.2474 275.647C72.2474 276.761 71.8051 277.829 71.0176 278.617C70.23 279.405 69.162 279.847 68.0483 279.847C67.4984 279.847 66.9539 279.738 66.4463 279.527C65.9386 279.315 65.4778 279.005 65.0905 278.615C64.7032 278.225 64.397 277.761 64.1896 277.252C63.9822 276.742 63.8777 276.197 63.882 275.647C63.8776 275.098 63.9824 274.554 64.1902 274.047C64.398 273.539 64.7047 273.078 65.0925 272.69C65.4802 272.302 65.9412 271.995 66.4487 271.788C66.9561 271.58 67.4999 271.475 68.0483 271.479C68.5982 271.475 69.1434 271.58 69.6527 271.787C70.162 271.994 70.6252 272.301 71.0155 272.688C71.4059 273.076 71.7159 273.536 71.9273 274.044C72.1388 274.552 72.2474 275.097 72.2474 275.647V275.647Z" fill="#A630B0"/>
<path id="Vector_13" opacity="0.11" d="M250.238 275.647C250.242 276.197 250.138 276.742 249.93 277.252C249.723 277.761 249.417 278.224 249.029 278.615C248.642 279.005 248.181 279.315 247.674 279.527C247.166 279.738 246.621 279.847 246.072 279.847C245.515 279.856 244.961 279.754 244.444 279.547C243.927 279.34 243.456 279.031 243.059 278.641C242.662 278.25 242.347 277.784 242.132 277.27C241.917 276.756 241.806 276.204 241.806 275.647C241.806 275.097 241.915 274.552 242.126 274.044C242.338 273.536 242.648 273.076 243.038 272.688C243.428 272.301 243.892 271.994 244.401 271.787C244.91 271.579 245.456 271.475 246.006 271.479C246.559 271.466 247.11 271.564 247.625 271.768C248.14 271.972 248.609 272.277 249.004 272.666C249.399 273.055 249.712 273.519 249.924 274.031C250.136 274.543 250.242 275.093 250.238 275.647V275.647Z" fill="#A630B0"/>
<path id="Vector_14" opacity="0.11" d="M428.228 275.647C428.232 276.197 428.128 276.742 427.92 277.252C427.713 277.761 427.407 278.225 427.02 278.615C426.632 279.005 426.171 279.315 425.664 279.527C425.156 279.738 424.612 279.847 424.062 279.847C422.948 279.847 421.88 279.405 421.093 278.617C420.305 277.829 419.862 276.761 419.862 275.647C419.862 275.097 419.971 274.552 420.183 274.044C420.394 273.536 420.704 273.076 421.095 272.688C421.485 272.301 421.948 271.994 422.457 271.787C422.967 271.58 423.512 271.475 424.062 271.479C424.61 271.475 425.154 271.58 425.661 271.788C426.169 271.995 426.63 272.302 427.018 272.69C427.405 273.078 427.712 273.539 427.92 274.047C428.128 274.554 428.232 275.098 428.228 275.647V275.647Z" fill="#A630B0"/>
<path id="Vector_15" opacity="0.11" d="M606.251 275.647C606.252 276.733 605.832 277.777 605.08 278.56C604.328 279.343 603.302 279.805 602.217 279.847C601.104 279.847 600.036 279.405 599.248 278.617C598.461 277.829 598.018 276.761 598.018 275.647C598.018 275.097 598.127 274.552 598.338 274.044C598.55 273.536 598.86 273.076 599.25 272.688C599.641 272.301 600.104 271.994 600.613 271.787C601.122 271.58 601.668 271.475 602.217 271.479C603.299 271.514 604.325 271.968 605.078 272.746C605.831 273.524 606.252 274.564 606.251 275.647V275.647Z" fill="#A630B0"/>
<path id="Vector_16" opacity="0.11" d="M784.241 275.647C784.241 276.761 783.799 277.829 783.012 278.617C782.224 279.405 781.156 279.847 780.042 279.847C779.492 279.847 778.948 279.738 778.44 279.527C777.932 279.315 777.472 279.005 777.085 278.615C776.697 278.225 776.391 277.761 776.184 277.252C775.976 276.742 775.872 276.197 775.876 275.647C775.872 275.098 775.976 274.554 776.184 274.047C776.392 273.539 776.699 273.078 777.086 272.69C777.474 272.302 777.935 271.995 778.443 271.788C778.95 271.58 779.494 271.475 780.042 271.479C780.592 271.475 781.137 271.58 781.647 271.787C782.156 271.994 782.619 272.301 783.01 272.688C783.4 273.076 783.71 273.536 783.921 274.044C784.133 274.552 784.241 275.097 784.241 275.647V275.647Z" fill="#A630B0"/>
<path id="Vector_17" opacity="0.11" d="M962.232 275.647C962.236 276.197 962.132 276.742 961.924 277.252C961.717 277.761 961.411 278.225 961.023 278.615C960.636 279.005 960.175 279.315 959.668 279.527C959.16 279.738 958.615 279.847 958.066 279.847C956.952 279.847 955.884 279.405 955.096 278.617C954.309 277.829 953.866 276.761 953.866 275.647C953.866 275.097 953.975 274.552 954.187 274.044C954.398 273.536 954.708 273.076 955.098 272.688C955.489 272.301 955.952 271.994 956.461 271.787C956.97 271.58 957.516 271.475 958.066 271.479C958.614 271.475 959.158 271.58 959.665 271.788C960.173 271.995 960.634 272.302 961.021 272.69C961.409 273.078 961.716 273.539 961.924 274.047C962.131 274.554 962.236 275.098 962.232 275.647V275.647Z" fill="#A630B0"/>
<path id="Vector_18" opacity="0.11" d="M1140.22 275.647C1140.23 276.197 1140.12 276.742 1139.91 277.252C1139.71 277.761 1139.4 278.225 1139.01 278.615C1138.63 279.005 1138.17 279.315 1137.66 279.527C1137.15 279.738 1136.61 279.847 1136.06 279.847C1134.94 279.847 1133.87 279.405 1133.09 278.617C1132.3 277.829 1131.86 276.761 1131.86 275.647C1131.86 275.097 1131.97 274.552 1132.18 274.044C1132.39 273.536 1132.7 273.076 1133.09 272.688C1133.48 272.301 1133.94 271.994 1134.45 271.787C1134.96 271.58 1135.51 271.475 1136.06 271.479C1136.6 271.475 1137.15 271.58 1137.66 271.788C1138.16 271.995 1138.62 272.302 1139.01 272.69C1139.4 273.078 1139.71 273.539 1139.91 274.047C1140.12 274.554 1140.23 275.098 1140.22 275.647V275.647Z" fill="#A630B0"/>
<path id="Vector_19" opacity="0.11" d="M1318.25 275.647C1318.25 276.761 1317.8 277.829 1317.02 278.617C1316.23 279.405 1315.16 279.847 1314.05 279.847C1313.49 279.852 1312.94 279.746 1312.43 279.537C1311.92 279.328 1311.45 279.019 1311.06 278.629C1310.66 278.238 1310.35 277.774 1310.14 277.262C1309.92 276.75 1309.81 276.201 1309.81 275.647C1309.81 275.097 1309.92 274.552 1310.13 274.044C1310.35 273.536 1310.66 273.076 1311.05 272.688C1311.44 272.301 1311.9 271.994 1312.41 271.787C1312.92 271.58 1313.46 271.475 1314.01 271.479C1314.57 271.471 1315.11 271.572 1315.63 271.777C1316.14 271.983 1316.61 272.288 1317 272.676C1317.4 273.064 1317.71 273.527 1317.92 274.037C1318.14 274.547 1318.25 275.094 1318.25 275.647V275.647Z" fill="#A630B0"/>
<path id="Vector_20" opacity="0.11" d="M1496.24 275.647C1496.24 276.761 1495.79 277.829 1495.01 278.617C1494.22 279.405 1493.15 279.847 1492.04 279.847C1491.49 279.847 1490.94 279.738 1490.43 279.527C1489.93 279.315 1489.47 279.005 1489.08 278.615C1488.69 278.225 1488.39 277.761 1488.18 277.252C1487.97 276.742 1487.87 276.197 1487.87 275.647C1487.87 275.098 1487.97 274.554 1488.18 274.047C1488.39 273.539 1488.69 273.078 1489.08 272.69C1489.47 272.302 1489.93 271.995 1490.44 271.788C1490.94 271.58 1491.49 271.475 1492.04 271.479C1492.59 271.475 1493.13 271.58 1493.64 271.787C1494.15 271.994 1494.61 272.301 1495 272.688C1495.39 273.076 1495.7 273.536 1495.92 274.044C1496.13 274.552 1496.24 275.097 1496.24 275.647V275.647Z" fill="#A630B0"/>
<path id="Vector_21" opacity="0.11" d="M1674.23 275.647C1674.24 276.73 1673.82 277.774 1673.08 278.558C1672.33 279.342 1671.31 279.804 1670.23 279.847C1669.11 279.847 1668.04 279.405 1667.26 278.617C1666.47 277.829 1666.03 276.761 1666.03 275.647C1666.03 275.097 1666.13 274.552 1666.35 274.044C1666.56 273.536 1666.87 273.076 1667.26 272.688C1667.65 272.301 1668.11 271.994 1668.62 271.787C1669.13 271.58 1669.68 271.475 1670.23 271.479C1671.3 271.514 1672.33 271.969 1673.07 272.748C1673.82 273.527 1674.24 274.567 1674.23 275.647V275.647Z" fill="#A630B0"/>
<path id="Vector_22" opacity="0.11" d="M1852.08 275.647C1852.09 276.197 1851.98 276.742 1851.78 277.252C1851.57 277.761 1851.26 278.225 1850.88 278.615C1850.49 279.005 1850.03 279.315 1849.52 279.527C1849.01 279.738 1848.47 279.847 1847.92 279.847C1846.8 279.847 1845.74 279.405 1844.95 278.617C1844.16 277.829 1843.72 276.761 1843.72 275.647C1843.72 275.097 1843.83 274.552 1844.04 274.044C1844.25 273.536 1844.56 273.076 1844.95 272.688C1845.34 272.301 1845.8 271.994 1846.31 271.787C1846.82 271.58 1847.37 271.475 1847.92 271.479C1848.47 271.475 1849.01 271.58 1849.52 271.788C1850.02 271.995 1850.49 272.302 1850.87 272.69C1851.26 273.078 1851.57 273.539 1851.78 274.047C1851.98 274.554 1852.09 275.098 1852.08 275.647V275.647Z" fill="#A630B0"/>
<path id="Vector_23" opacity="0.11" d="M72.2474 446.181C72.2387 447.29 71.7924 448.35 71.0058 449.13C70.2193 449.911 69.1563 450.349 68.0483 450.349C66.9433 450.349 65.8835 449.91 65.1022 449.128C64.3209 448.347 63.882 447.287 63.882 446.181C63.8776 445.631 63.9822 445.086 64.1896 444.576C64.397 444.067 64.7032 443.603 65.0905 443.213C65.4778 442.823 65.9386 442.513 66.4463 442.301C66.9539 442.09 67.4984 441.981 68.0483 441.981C69.162 441.981 70.23 442.423 71.0176 443.211C71.8051 443.999 72.2474 445.067 72.2474 446.181Z" fill="#A630B0"/>
<path id="Vector_24" opacity="0.11" d="M250.238 446.181C250.238 447.287 249.799 448.347 249.018 449.128C248.236 449.91 247.176 450.349 246.072 450.349C244.964 450.349 243.901 449.911 243.114 449.13C242.327 448.35 241.881 447.29 241.872 446.181C241.872 445.067 242.315 443.999 243.102 443.211C243.89 442.423 244.958 441.981 246.072 441.981C246.621 441.981 247.166 442.09 247.674 442.301C248.181 442.513 248.642 442.823 249.029 443.213C249.417 443.603 249.723 444.067 249.93 444.576C250.138 445.086 250.242 445.631 250.238 446.181V446.181Z" fill="#A630B0"/>
<path id="Vector_25" opacity="0.11" d="M428.228 446.181C428.228 447.287 427.789 448.347 427.008 449.128C426.226 449.91 425.167 450.349 424.062 450.349C422.954 450.349 421.891 449.911 421.104 449.13C420.317 448.35 419.871 447.29 419.862 446.181C419.862 445.067 420.305 443.999 421.093 443.211C421.88 442.423 422.948 441.981 424.062 441.981C424.612 441.981 425.156 442.09 425.664 442.301C426.171 442.513 426.632 442.823 427.02 443.213C427.407 443.603 427.713 444.067 427.92 444.576C428.128 445.086 428.232 445.631 428.228 446.181V446.181Z" fill="#A630B0"/>
<path id="Vector_26" opacity="0.11" d="M606.251 446.181C606.243 447.29 605.796 448.35 605.01 449.13C604.223 449.911 603.16 450.349 602.052 450.349C600.944 450.349 599.881 449.911 599.094 449.13C598.308 448.35 597.862 447.29 597.853 446.181C597.853 445.067 598.295 443.999 599.083 443.211C599.87 442.423 600.939 441.981 602.052 441.981C603.166 441.981 604.234 442.423 605.022 443.211C605.809 443.999 606.251 445.067 606.251 446.181V446.181Z" fill="#A630B0"/>
<path id="Vector_27" opacity="0.11" d="M784.241 446.181C784.233 447.29 783.786 448.35 783 449.13C782.213 449.911 781.15 450.349 780.042 450.349C778.937 450.349 777.878 449.91 777.096 449.128C776.315 448.347 775.876 447.287 775.876 446.181C775.872 445.631 775.976 445.086 776.184 444.576C776.391 444.067 776.697 443.603 777.085 443.213C777.472 442.823 777.932 442.513 778.44 442.301C778.948 442.09 779.492 441.981 780.042 441.981C781.156 441.981 782.224 442.423 783.012 443.211C783.799 443.999 784.241 445.067 784.241 446.181Z" fill="#A630B0"/>
<path id="Vector_28" opacity="0.11" d="M962.232 446.181C962.232 447.287 961.793 448.347 961.011 449.128C960.23 449.91 959.171 450.349 958.066 450.349C956.958 450.349 955.894 449.911 955.108 449.13C954.321 448.35 953.875 447.29 953.866 446.181C953.866 445.067 954.309 443.999 955.096 443.211C955.884 442.423 956.952 441.981 958.066 441.981C958.615 441.981 959.16 442.09 959.668 442.301C960.175 442.513 960.636 442.823 961.023 443.213C961.411 443.603 961.717 444.067 961.924 444.576C962.132 445.086 962.236 445.631 962.232 446.181V446.181Z" fill="#A630B0"/>
<path id="Vector_29" opacity="0.11" d="M1140.22 446.181C1140.22 447.287 1139.78 448.347 1139 449.128C1138.22 449.91 1137.16 450.349 1136.06 450.349C1134.95 450.349 1133.88 449.911 1133.1 449.13C1132.31 448.35 1131.87 447.29 1131.86 446.181C1131.86 445.067 1132.3 443.999 1133.09 443.211C1133.87 442.423 1134.94 441.981 1136.06 441.981C1136.61 441.981 1137.15 442.09 1137.66 442.301C1138.17 442.513 1138.63 442.823 1139.01 443.213C1139.4 443.603 1139.71 444.067 1139.91 444.576C1140.12 445.086 1140.23 445.631 1140.22 446.181V446.181Z" fill="#A630B0"/>
<path id="Vector_30" opacity="0.11" d="M1318.25 446.181C1318.24 447.29 1317.79 448.35 1317 449.13C1316.22 449.911 1315.15 450.349 1314.05 450.349C1312.94 450.349 1311.87 449.911 1311.09 449.13C1310.3 448.35 1309.86 447.29 1309.85 446.181C1309.85 445.067 1310.29 443.999 1311.08 443.211C1311.86 442.423 1312.93 441.981 1314.05 441.981C1315.16 441.981 1316.23 442.423 1317.02 443.211C1317.8 443.999 1318.25 445.067 1318.25 446.181Z" fill="#A630B0"/>
<path id="Vector_31" opacity="0.11" d="M1496.24 446.181C1496.23 447.29 1495.78 448.35 1494.99 449.13C1494.21 449.911 1493.14 450.349 1492.04 450.349C1490.93 450.349 1489.87 449.91 1489.09 449.128C1488.31 448.347 1487.87 447.287 1487.87 446.181C1487.87 445.631 1487.97 445.086 1488.18 444.576C1488.39 444.067 1488.69 443.603 1489.08 443.213C1489.47 442.823 1489.93 442.513 1490.43 442.301C1490.94 442.09 1491.49 441.981 1492.04 441.981C1493.15 441.981 1494.22 442.423 1495.01 443.211C1495.79 443.999 1496.24 445.067 1496.24 446.181Z" fill="#A630B0"/>
<path id="Vector_32" opacity="0.11" d="M1674.23 446.181C1674.23 447.287 1673.79 448.347 1673.01 449.128C1672.22 449.91 1671.16 450.349 1670.06 450.349C1668.95 450.349 1667.89 449.911 1667.1 449.13C1666.32 448.35 1665.87 447.29 1665.86 446.181C1665.86 445.067 1666.3 443.999 1667.09 443.211C1667.88 442.423 1668.95 441.981 1670.06 441.981C1670.61 441.981 1671.15 442.09 1671.66 442.301C1672.17 442.513 1672.63 442.823 1673.02 443.213C1673.4 443.603 1673.71 444.067 1673.92 444.576C1674.13 445.086 1674.23 445.631 1674.23 446.181V446.181Z" fill="#A630B0"/>
<path id="Vector_33" opacity="0.11" d="M1852.08 446.181C1852.08 447.287 1851.64 448.347 1850.86 449.128C1850.08 449.91 1849.02 450.349 1847.92 450.349C1846.81 450.349 1845.75 449.911 1844.96 449.13C1844.17 448.35 1843.73 447.29 1843.72 446.181C1843.72 445.067 1844.16 443.999 1844.95 443.211C1845.74 442.423 1846.8 441.981 1847.92 441.981C1848.47 441.981 1849.01 442.09 1849.52 442.301C1850.03 442.513 1850.49 442.823 1850.88 443.213C1851.26 443.603 1851.57 444.067 1851.78 444.576C1851.98 445.086 1852.09 445.631 1852.08 446.181V446.181Z" fill="#A630B0"/>
<path id="Vector_34" opacity="0.11" d="M72.2474 616.683C72.2474 617.797 71.8051 618.865 71.0176 619.653C70.23 620.441 69.162 620.883 68.0483 620.883C67.4984 620.883 66.9539 620.774 66.4463 620.563C65.9386 620.351 65.4778 620.041 65.0905 619.651C64.7032 619.26 64.397 618.797 64.1896 618.288C63.9822 617.778 63.8776 617.233 63.882 616.683C63.8776 616.133 63.9822 615.587 64.1896 615.078C64.397 614.568 64.7032 614.105 65.0905 613.714C65.4778 613.324 65.9386 613.014 66.4463 612.802C66.9539 612.591 67.4984 612.482 68.0483 612.482C69.162 612.482 70.23 612.925 71.0176 613.712C71.8051 614.5 72.2474 615.569 72.2474 616.683V616.683Z" fill="#A630B0"/>
<path id="Vector_35" opacity="0.11" d="M250.238 616.683C250.242 617.233 250.138 617.778 249.93 618.288C249.723 618.797 249.417 619.26 249.029 619.651C248.642 620.041 248.181 620.351 247.674 620.563C247.166 620.774 246.621 620.883 246.072 620.883C244.958 620.883 243.89 620.441 243.102 619.653C242.315 618.865 241.872 617.797 241.872 616.683C241.872 615.569 242.315 614.5 243.102 613.712C243.89 612.925 244.958 612.482 246.072 612.482C246.621 612.482 247.166 612.591 247.674 612.802C248.181 613.014 248.642 613.324 249.029 613.714C249.417 614.105 249.723 614.568 249.93 615.078C250.138 615.587 250.242 616.133 250.238 616.683V616.683Z" fill="#A630B0"/>
<path id="Vector_36" opacity="0.11" d="M428.228 616.683C428.232 617.233 428.128 617.778 427.92 618.288C427.713 618.797 427.407 619.26 427.02 619.651C426.632 620.041 426.171 620.351 425.664 620.563C425.156 620.774 424.612 620.883 424.062 620.883C422.948 620.883 421.88 620.441 421.093 619.653C420.305 618.865 419.862 617.797 419.862 616.683C419.862 615.569 420.305 614.5 421.093 613.712C421.88 612.925 422.948 612.482 424.062 612.482C424.612 612.482 425.156 612.591 425.664 612.802C426.171 613.014 426.632 613.324 427.02 613.714C427.407 614.105 427.713 614.568 427.92 615.078C428.128 615.587 428.232 616.133 428.228 616.683V616.683Z" fill="#A630B0"/>
<path id="Vector_37" opacity="0.11" d="M602.052 620.883C604.371 620.883 606.251 619.002 606.251 616.683C606.251 614.363 604.371 612.482 602.052 612.482C599.733 612.482 597.853 614.363 597.853 616.683C597.853 619.002 599.733 620.883 602.052 620.883Z" fill="#A630B0"/>
<path id="Vector_38" opacity="0.11" d="M784.241 616.683C784.241 617.797 783.799 618.865 783.012 619.653C782.224 620.441 781.156 620.883 780.042 620.883C779.492 620.883 778.948 620.774 778.44 620.563C777.932 620.351 777.472 620.041 777.085 619.651C776.697 619.26 776.391 618.797 776.184 618.288C775.976 617.778 775.872 617.233 775.876 616.683C775.872 616.133 775.976 615.587 776.184 615.078C776.391 614.568 776.697 614.105 777.085 613.714C777.472 613.324 777.932 613.014 778.44 612.802C778.948 612.591 779.492 612.482 780.042 612.482C781.156 612.482 782.224 612.925 783.012 613.712C783.799 614.5 784.241 615.569 784.241 616.683V616.683Z" fill="#A630B0"/>
<path id="Vector_39" opacity="0.11" d="M962.232 616.683C962.236 617.233 962.132 617.778 961.924 618.288C961.717 618.797 961.411 619.26 961.023 619.651C960.636 620.041 960.175 620.351 959.668 620.563C959.16 620.774 958.615 620.883 958.066 620.883C956.952 620.883 955.884 620.441 955.096 619.653C954.309 618.865 953.866 617.797 953.866 616.683C953.866 615.569 954.309 614.5 955.096 613.712C955.884 612.925 956.952 612.482 958.066 612.482C958.615 612.482 959.16 612.591 959.668 612.802C960.175 613.014 960.636 613.324 961.023 613.714C961.411 614.105 961.717 614.568 961.924 615.078C962.132 615.587 962.236 616.133 962.232 616.683V616.683Z" fill="#A630B0"/>
<path id="Vector_40" opacity="0.11" d="M1140.22 616.683C1140.23 617.233 1140.12 617.778 1139.91 618.288C1139.71 618.797 1139.4 619.26 1139.01 619.651C1138.63 620.041 1138.17 620.351 1137.66 620.563C1137.15 620.774 1136.61 620.883 1136.06 620.883C1134.94 620.883 1133.87 620.441 1133.09 619.653C1132.3 618.865 1131.86 617.797 1131.86 616.683C1131.86 615.569 1132.3 614.5 1133.09 613.712C1133.87 612.925 1134.94 612.482 1136.06 612.482C1136.61 612.482 1137.15 612.591 1137.66 612.802C1138.17 613.014 1138.63 613.324 1139.01 613.714C1139.4 614.105 1139.71 614.568 1139.91 615.078C1140.12 615.587 1140.23 616.133 1140.22 616.683V616.683Z" fill="#A630B0"/>
<path id="Vector_41" opacity="0.11" d="M1318.25 616.683C1318.25 617.797 1317.8 618.865 1317.02 619.653C1316.23 620.441 1315.16 620.883 1314.05 620.883C1312.93 620.883 1311.86 620.441 1311.08 619.653C1310.29 618.865 1309.85 617.797 1309.85 616.683C1309.85 615.569 1310.29 614.5 1311.08 613.712C1311.86 612.925 1312.93 612.482 1314.05 612.482C1315.16 612.482 1316.23 612.925 1317.02 613.712C1317.8 614.5 1318.25 615.569 1318.25 616.683V616.683Z" fill="#A630B0"/>
<path id="Vector_42" opacity="0.11" d="M1496.24 616.683C1496.24 617.797 1495.79 618.865 1495.01 619.653C1494.22 620.441 1493.15 620.883 1492.04 620.883C1491.49 620.883 1490.94 620.774 1490.43 620.563C1489.93 620.351 1489.47 620.041 1489.08 619.651C1488.69 619.26 1488.39 618.797 1488.18 618.288C1487.97 617.778 1487.87 617.233 1487.87 616.683C1487.87 616.133 1487.97 615.587 1488.18 615.078C1488.39 614.568 1488.69 614.105 1489.08 613.714C1489.47 613.324 1489.93 613.014 1490.43 612.802C1490.94 612.591 1491.49 612.482 1492.04 612.482C1493.15 612.482 1494.22 612.925 1495.01 613.712C1495.79 614.5 1496.24 615.569 1496.24 616.683V616.683Z" fill="#A630B0"/>
<path id="Vector_43" opacity="0.11" d="M1674.23 616.683C1674.23 617.233 1674.13 617.778 1673.92 618.288C1673.71 618.797 1673.4 619.26 1673.02 619.651C1672.63 620.041 1672.17 620.351 1671.66 620.563C1671.15 620.774 1670.61 620.883 1670.06 620.883C1668.95 620.883 1667.88 620.441 1667.09 619.653C1666.3 618.865 1665.86 617.797 1665.86 616.683C1665.86 615.569 1666.3 614.5 1667.09 613.712C1667.88 612.925 1668.95 612.482 1670.06 612.482C1670.61 612.482 1671.15 612.591 1671.66 612.802C1672.17 613.014 1672.63 613.324 1673.02 613.714C1673.4 614.105 1673.71 614.568 1673.92 615.078C1674.13 615.587 1674.23 616.133 1674.23 616.683V616.683Z" fill="#A630B0"/>
<path id="Vector_44" opacity="0.11" d="M1852.08 616.683C1852.09 617.233 1851.98 617.778 1851.78 618.288C1851.57 618.797 1851.26 619.26 1850.88 619.651C1850.49 620.041 1850.03 620.351 1849.52 620.563C1849.01 620.774 1848.47 620.883 1847.92 620.883C1846.8 620.883 1845.74 620.441 1844.95 619.653C1844.16 618.865 1843.72 617.797 1843.72 616.683C1843.72 615.569 1844.16 614.5 1844.95 613.712C1845.74 612.925 1846.8 612.482 1847.92 612.482C1848.47 612.482 1849.01 612.591 1849.52 612.802C1850.03 613.014 1850.49 613.324 1850.88 613.714C1851.26 614.105 1851.57 614.568 1851.78 615.078C1851.98 615.587 1852.09 616.133 1852.08 616.683V616.683Z" fill="#A630B0"/>
<path id="Vector_45" opacity="0.11" d="M72.2474 787.184C72.2474 788.298 71.8051 789.366 71.0176 790.154C70.23 790.942 69.162 791.384 68.0483 791.384C67.4984 791.384 66.9539 791.276 66.4463 791.064C65.9386 790.853 65.4778 790.543 65.0905 790.152C64.7032 789.762 64.397 789.298 64.1896 788.789C63.9822 788.279 63.8777 787.734 63.882 787.184C63.8776 786.636 63.9824 786.092 64.1902 785.584C64.398 785.076 64.7047 784.615 65.0925 784.227C65.4802 783.839 65.9412 783.533 66.4487 783.325C66.9561 783.117 67.4999 783.012 68.0483 783.017C68.5982 783.012 69.1434 783.117 69.6527 783.324C70.162 783.532 70.6252 783.838 71.0155 784.225C71.4059 784.613 71.7159 785.074 71.9273 785.581C72.1388 786.089 72.2474 786.634 72.2474 787.184V787.184Z" fill="#A630B0"/>
<path id="Vector_46" opacity="0.11" d="M250.238 787.184C250.242 787.734 250.138 788.279 249.93 788.789C249.723 789.298 249.417 789.762 249.029 790.152C248.642 790.543 248.181 790.853 247.674 791.064C247.166 791.276 246.621 791.384 246.072 791.384C244.958 791.384 243.89 790.942 243.102 790.154C242.315 789.366 241.872 788.298 241.872 787.184C241.872 786.634 241.981 786.089 242.193 785.581C242.404 785.074 242.714 784.613 243.104 784.225C243.495 783.838 243.958 783.532 244.467 783.324C244.976 783.117 245.522 783.012 246.072 783.017C246.62 783.012 247.164 783.117 247.671 783.325C248.179 783.533 248.64 783.839 249.027 784.227C249.415 784.615 249.722 785.076 249.93 785.584C250.137 786.092 250.242 786.636 250.238 787.184Z" fill="#A630B0"/>
<path id="Vector_47" opacity="0.11" d="M428.228 787.184C428.232 787.734 428.128 788.279 427.92 788.789C427.713 789.298 427.407 789.762 427.02 790.152C426.632 790.543 426.171 790.853 425.664 791.064C425.156 791.276 424.612 791.384 424.062 791.384C422.948 791.384 421.88 790.942 421.093 790.154C420.305 789.366 419.862 788.298 419.862 787.184C419.862 786.634 419.971 786.089 420.183 785.581C420.394 785.074 420.704 784.613 421.095 784.225C421.485 783.838 421.948 783.532 422.457 783.324C422.967 783.117 423.512 783.012 424.062 783.017C424.61 783.012 425.154 783.117 425.661 783.325C426.169 783.533 426.63 783.839 427.018 784.227C427.405 784.615 427.712 785.076 427.92 785.584C428.128 786.092 428.232 786.636 428.228 787.184V787.184Z" fill="#A630B0"/>
<path id="Vector_48" opacity="0.11" d="M606.251 787.184C606.269 788.281 605.857 789.342 605.104 790.14C604.35 790.937 603.314 791.408 602.217 791.451C601.104 791.451 600.036 791.008 599.248 790.22C598.461 789.433 598.018 788.364 598.018 787.25C598.018 786.7 598.127 786.155 598.338 785.648C598.55 785.14 598.86 784.679 599.25 784.292C599.641 783.904 600.104 783.598 600.613 783.39C601.122 783.183 601.668 783.078 602.217 783.083C603.288 783.117 604.304 783.562 605.056 784.325C605.807 785.089 606.235 786.113 606.251 787.184V787.184Z" fill="#A630B0"/>
<path id="Vector_49" opacity="0.11" d="M784.241 787.184C784.241 788.298 783.799 789.366 783.012 790.154C782.224 790.942 781.156 791.384 780.042 791.384C779.492 791.384 778.948 791.276 778.44 791.064C777.932 790.853 777.472 790.543 777.085 790.152C776.697 789.762 776.391 789.298 776.184 788.789C775.976 788.279 775.872 787.734 775.876 787.184C775.872 786.636 775.976 786.092 776.184 785.584C776.392 785.076 776.699 784.615 777.086 784.227C777.474 783.839 777.935 783.533 778.443 783.325C778.95 783.117 779.494 783.012 780.042 783.017C780.592 783.012 781.137 783.117 781.647 783.324C782.156 783.532 782.619 783.838 783.01 784.225C783.4 784.613 783.71 785.074 783.921 785.581C784.133 786.089 784.241 786.634 784.241 787.184V787.184Z" fill="#A630B0"/>
<path id="Vector_50" opacity="0.11" d="M962.232 787.184C962.236 787.734 962.132 788.279 961.924 788.789C961.717 789.298 961.411 789.762 961.023 790.152C960.636 790.543 960.175 790.853 959.668 791.064C959.16 791.276 958.615 791.384 958.066 791.384C956.952 791.384 955.884 790.942 955.096 790.154C954.309 789.366 953.866 788.298 953.866 787.184C953.866 786.634 953.975 786.089 954.187 785.581C954.398 785.074 954.708 784.613 955.098 784.225C955.489 783.838 955.952 783.532 956.461 783.324C956.97 783.117 957.516 783.012 958.066 783.017C958.614 783.012 959.158 783.117 959.665 783.325C960.173 783.533 960.634 783.839 961.021 784.227C961.409 784.615 961.716 785.076 961.924 785.584C962.131 786.092 962.236 786.636 962.232 787.184V787.184Z" fill="#A630B0"/>
<path id="Vector_51" opacity="0.11" d="M1140.22 787.184C1140.23 787.734 1140.12 788.279 1139.91 788.789C1139.71 789.298 1139.4 789.762 1139.01 790.152C1138.63 790.543 1138.17 790.853 1137.66 791.064C1137.15 791.276 1136.61 791.384 1136.06 791.384C1134.94 791.384 1133.87 790.942 1133.09 790.154C1132.3 789.366 1131.86 788.298 1131.86 787.184C1131.86 786.634 1131.97 786.089 1132.18 785.581C1132.39 785.074 1132.7 784.613 1133.09 784.225C1133.48 783.838 1133.94 783.532 1134.45 783.324C1134.96 783.117 1135.51 783.012 1136.06 783.017C1136.6 783.012 1137.15 783.117 1137.66 783.325C1138.16 783.533 1138.62 783.839 1139.01 784.227C1139.4 784.615 1139.71 785.076 1139.91 785.584C1140.12 786.092 1140.23 786.636 1140.22 787.184V787.184Z" fill="#A630B0"/>
<path id="Vector_52" opacity="0.11" d="M1318.25 787.184C1318.25 788.298 1317.8 789.366 1317.02 790.154C1316.23 790.942 1315.16 791.384 1314.05 791.384C1312.93 791.384 1311.86 790.942 1311.08 790.154C1310.29 789.366 1309.85 788.298 1309.85 787.184C1309.85 786.634 1309.96 786.089 1310.17 785.581C1310.38 785.074 1310.69 784.613 1311.08 784.225C1311.47 783.838 1311.93 783.532 1312.44 783.324C1312.95 783.117 1313.5 783.012 1314.05 783.017C1314.6 783.012 1315.14 783.117 1315.65 783.324C1316.16 783.532 1316.62 783.838 1317.01 784.225C1317.4 784.613 1317.71 785.074 1317.93 785.581C1318.14 786.089 1318.25 786.634 1318.25 787.184V787.184Z" fill="#A630B0"/>
<path id="Vector_53" opacity="0.11" d="M1496.24 787.184C1496.24 788.298 1495.79 789.366 1495.01 790.154C1494.22 790.942 1493.15 791.384 1492.04 791.384C1491.49 791.384 1490.94 791.276 1490.43 791.064C1489.93 790.853 1489.47 790.543 1489.08 790.152C1488.69 789.762 1488.39 789.298 1488.18 788.789C1487.97 788.279 1487.87 787.734 1487.87 787.184C1487.87 786.636 1487.97 786.092 1488.18 785.584C1488.39 785.076 1488.69 784.615 1489.08 784.227C1489.47 783.839 1489.93 783.533 1490.44 783.325C1490.94 783.117 1491.49 783.012 1492.04 783.017C1492.59 783.012 1493.13 783.117 1493.64 783.324C1494.15 783.532 1494.61 783.838 1495 784.225C1495.39 784.613 1495.7 785.074 1495.92 785.581C1496.13 786.089 1496.24 786.634 1496.24 787.184V787.184Z" fill="#A630B0"/>
<path id="Vector_54" opacity="0.11" d="M1674.23 787.184C1674.25 788.278 1673.85 789.339 1673.1 790.137C1672.35 790.936 1671.32 791.408 1670.23 791.451C1669.11 791.451 1668.04 791.008 1667.26 790.22C1666.47 789.433 1666.03 788.364 1666.03 787.25C1666.03 786.7 1666.13 786.155 1666.35 785.648C1666.56 785.14 1666.87 784.679 1667.26 784.292C1667.65 783.904 1668.11 783.598 1668.62 783.39C1669.13 783.183 1669.68 783.078 1670.23 783.083C1671.29 783.117 1672.31 783.563 1673.05 784.327C1673.8 785.092 1674.22 786.116 1674.23 787.184V787.184Z" fill="#A630B0"/>
<path id="Vector_55" opacity="0.11" d="M1852.08 787.184C1852.09 787.734 1851.98 788.279 1851.78 788.789C1851.57 789.298 1851.26 789.762 1850.88 790.152C1850.49 790.543 1850.03 790.853 1849.52 791.064C1849.01 791.276 1848.47 791.384 1847.92 791.384C1846.8 791.384 1845.74 790.942 1844.95 790.154C1844.16 789.366 1843.72 788.298 1843.72 787.184C1843.72 786.634 1843.83 786.089 1844.04 785.581C1844.25 785.074 1844.56 784.613 1844.95 784.225C1845.34 783.838 1845.8 783.532 1846.31 783.324C1846.82 783.117 1847.37 783.012 1847.92 783.017C1848.47 783.012 1849.01 783.117 1849.52 783.325C1850.02 783.533 1850.49 783.839 1850.87 784.227C1851.26 784.615 1851.57 785.076 1851.78 785.584C1851.98 786.092 1852.09 786.636 1852.08 787.184V787.184Z" fill="#A630B0"/>
<path id="Vector_56" opacity="0.11" d="M72.2474 957.718C72.2387 958.827 71.7924 959.887 71.0058 960.667C70.2193 961.448 69.1563 961.886 68.0483 961.886C66.9433 961.886 65.8835 961.447 65.1022 960.665C64.3209 959.884 63.882 958.824 63.882 957.718C63.8776 957.168 63.9822 956.623 64.1896 956.114C64.397 955.604 64.7032 955.141 65.0905 954.75C65.4778 954.36 65.9386 954.05 66.4463 953.838C66.9539 953.627 67.4984 953.518 68.0483 953.518C69.162 953.518 70.23 953.961 71.0176 954.748C71.8051 955.536 72.2474 956.604 72.2474 957.718V957.718Z" fill="#A630B0"/>
<path id="Vector_57" opacity="0.11" d="M250.238 957.718C250.238 958.824 249.799 959.884 249.018 960.665C248.236 961.447 247.176 961.886 246.072 961.886C244.964 961.886 243.901 961.448 243.114 960.667C242.327 959.887 241.881 958.827 241.872 957.718C241.872 956.604 242.315 955.536 243.102 954.748C243.89 953.961 244.958 953.518 246.072 953.518C246.621 953.518 247.166 953.627 247.674 953.838C248.181 954.05 248.642 954.36 249.029 954.75C249.417 955.141 249.723 955.604 249.93 956.114C250.138 956.623 250.242 957.168 250.238 957.718V957.718Z" fill="#A630B0"/>
<path id="Vector_58" opacity="0.11" d="M428.228 957.718C428.228 958.824 427.789 959.884 427.008 960.665C426.226 961.447 425.167 961.886 424.062 961.886C422.954 961.886 421.891 961.448 421.104 960.667C420.317 959.887 419.871 958.827 419.862 957.718C419.862 956.604 420.305 955.536 421.093 954.748C421.88 953.961 422.948 953.518 424.062 953.518C424.612 953.518 425.156 953.627 425.664 953.838C426.171 954.05 426.632 954.36 427.02 954.75C427.407 955.141 427.713 955.604 427.92 956.114C428.128 956.623 428.232 957.168 428.228 957.718V957.718Z" fill="#A630B0"/>
<path id="Vector_59" opacity="0.11" d="M606.251 957.718C606.243 958.827 605.796 959.887 605.01 960.667C604.223 961.448 603.16 961.886 602.052 961.886C600.944 961.886 599.881 961.448 599.094 960.667C598.308 959.887 597.862 958.827 597.853 957.718C597.852 957.153 597.966 956.593 598.188 956.072C598.409 955.551 598.733 955.081 599.141 954.688C599.548 954.296 600.031 953.99 600.56 953.789C601.088 953.588 601.652 953.496 602.218 953.518C603.302 953.561 604.328 954.022 605.08 954.805C605.833 955.588 606.252 956.632 606.251 957.718V957.718Z" fill="#A630B0"/>
<path id="Vector_60" opacity="0.11" d="M784.241 957.718C784.233 958.827 783.786 959.887 783 960.667C782.213 961.448 781.15 961.886 780.042 961.886C778.937 961.886 777.878 961.447 777.096 960.665C776.315 959.884 775.876 958.824 775.876 957.718C775.872 957.168 775.976 956.623 776.184 956.114C776.391 955.604 776.697 955.141 777.085 954.75C777.472 954.36 777.932 954.05 778.44 953.838C778.948 953.627 779.492 953.518 780.042 953.518C781.156 953.518 782.224 953.961 783.012 954.748C783.799 955.536 784.241 956.604 784.241 957.718Z" fill="#A630B0"/>
<path id="Vector_61" opacity="0.11" d="M962.232 957.718C962.232 958.824 961.793 959.884 961.011 960.665C960.23 961.447 959.171 961.886 958.066 961.886C956.958 961.886 955.894 961.448 955.108 960.667C954.321 959.887 953.875 958.827 953.866 957.718C953.866 956.604 954.309 955.536 955.096 954.748C955.884 953.961 956.952 953.518 958.066 953.518C958.615 953.518 959.16 953.627 959.668 953.838C960.175 954.05 960.636 954.36 961.023 954.75C961.411 955.141 961.717 955.604 961.924 956.114C962.132 956.623 962.236 957.168 962.232 957.718V957.718Z" fill="#A630B0"/>
<path id="Vector_62" opacity="0.11" d="M1140.22 957.718C1140.22 958.824 1139.78 959.884 1139 960.665C1138.22 961.447 1137.16 961.886 1136.06 961.886C1134.95 961.886 1133.88 961.448 1133.1 960.667C1132.31 959.887 1131.87 958.827 1131.86 957.718C1131.86 956.604 1132.3 955.536 1133.09 954.748C1133.87 953.961 1134.94 953.518 1136.06 953.518C1136.61 953.518 1137.15 953.627 1137.66 953.838C1138.17 954.05 1138.63 954.36 1139.01 954.75C1139.4 955.141 1139.71 955.604 1139.91 956.114C1140.12 956.623 1140.23 957.168 1140.22 957.718V957.718Z" fill="#A630B0"/>
<path id="Vector_63" opacity="0.11" d="M1318.25 957.718C1318.24 958.827 1317.79 959.887 1317 960.667C1316.22 961.448 1315.15 961.886 1314.05 961.886C1312.94 961.886 1311.87 961.448 1311.09 960.667C1310.3 959.887 1309.86 958.827 1309.85 957.718C1309.85 956.604 1310.29 955.536 1311.08 954.748C1311.86 953.961 1312.93 953.518 1314.05 953.518C1315.16 953.518 1316.23 953.961 1317.02 954.748C1317.8 955.536 1318.25 956.604 1318.25 957.718Z" fill="#A630B0"/>
<path id="Vector_64" opacity="0.11" d="M1496.24 957.718C1496.23 958.827 1495.78 959.887 1494.99 960.667C1494.21 961.448 1493.14 961.886 1492.04 961.886C1490.93 961.886 1489.87 961.447 1489.09 960.665C1488.31 959.884 1487.87 958.824 1487.87 957.718C1487.87 957.168 1487.97 956.623 1488.18 956.114C1488.39 955.604 1488.69 955.141 1489.08 954.75C1489.47 954.36 1489.93 954.05 1490.43 953.838C1490.94 953.627 1491.49 953.518 1492.04 953.518C1493.15 953.518 1494.22 953.961 1495.01 954.748C1495.79 955.536 1496.24 956.604 1496.24 957.718V957.718Z" fill="#A630B0"/>
<path id="Vector_65" opacity="0.11" d="M1674.23 957.718C1674.23 958.824 1673.79 959.884 1673.01 960.665C1672.22 961.447 1671.16 961.886 1670.06 961.886C1668.95 961.886 1667.89 961.448 1667.1 960.667C1666.32 959.887 1665.87 958.827 1665.86 957.718C1665.86 957.153 1665.97 956.593 1666.19 956.072C1666.42 955.551 1666.74 955.081 1667.15 954.688C1667.56 954.296 1668.04 953.99 1668.57 953.789C1669.1 953.588 1669.66 953.496 1670.22 953.518C1671.31 953.561 1672.33 954.023 1673.08 954.807C1673.82 955.592 1674.24 956.636 1674.23 957.718V957.718Z" fill="#A630B0"/>
<path id="Vector_66" opacity="0.11" d="M1852.08 957.718C1852.08 958.824 1851.64 959.884 1850.86 960.665C1850.08 961.447 1849.02 961.886 1847.92 961.886C1846.81 961.886 1845.75 961.448 1844.96 960.667C1844.17 959.887 1843.73 958.827 1843.72 957.718C1843.72 956.604 1844.16 955.536 1844.95 954.748C1845.74 953.961 1846.8 953.518 1847.92 953.518C1848.47 953.518 1849.01 953.627 1849.52 953.838C1850.03 954.05 1850.49 954.36 1850.88 954.75C1851.26 955.141 1851.57 955.604 1851.78 956.114C1851.98 956.623 1852.09 957.168 1852.08 957.718V957.718Z" fill="#A630B0"/>
</g>
</g>
</g>
<g id="Group_4">
<path id="Vector_67" opacity="0.25" d="M1380.38 510.842C1380.38 510.842 1342.88 599.913 1242.69 542.23C1142.5 484.548 1134.34 425.873 942.162 482.398C749.986 538.923 680.186 535.582 639.086 470.689C597.985 405.796 520.481 315.7 356.576 325.16C192.672 334.619 108.322 112.918 -9.81997 77.0313C-127.962 41.145 -213.601 152.078 -213.601 152.078V1294.69H1995.16C1995.16 1294.69 1938.65 1120.02 1811.94 1066.9C1685.24 1013.78 1703.39 977.861 1691.75 888.79C1680.11 799.719 1436.72 739.655 1453.68 608.877C1470.64 478.098 1380.38 510.842 1380.38 510.842Z" fill="url(#paint0_radial_59:453)"/>
<path id="Vector_68" opacity="0.25" d="M-175.345 168.947C-161.656 160.281 78.0672 102.797 153.39 264.864C228.712 426.931 308.796 429.015 429.65 438.97C550.503 448.926 514.099 450.944 648.807 537.865C783.514 624.786 862.606 579.572 960.777 548.515C1058.95 517.457 1215.61 591.909 1340.86 527.148C1466.11 462.388 1471.24 568.69 1471.24 568.69C1471.24 568.69 1436.35 661.3 1537.7 726.326C1639.04 791.351 1589.31 866.001 1617.49 984.773C1645.66 1103.55 1920 1279.34 1920 1279.34L-225.571 1167.45L-175.345 168.947Z" fill="url(#paint1_radial_59:453)"/>
<path id="Vector_69" d="M-143.404 201.988C-143.404 201.988 -104.023 385.224 62.0637 405.796C228.15 426.369 233.309 420.25 296.827 503.797C360.345 587.345 394.403 634.146 507.42 603.915C620.437 573.685 719.731 502.276 812.215 560.223C904.698 618.171 1109.47 716.337 1320.66 488.384C1531.85 260.432 1462.54 603.915 1462.54 603.915C1462.54 603.915 1316.2 731.419 1529.63 845.958C1604.95 888.79 1592.69 1016.56 1617.52 1099.38C1642.35 1182.2 1845.24 1342.08 1845.24 1342.08C1845.24 1342.08 290.181 1471.34 279.898 1473.06C269.614 1474.78 -311.012 1154.25 -311.012 1154.25L-143.404 201.988Z" fill="url(#paint2_radial_59:453)"/>
</g>
<path id="Vector_70" class="stars"  d="M714.904 637.387L717.351 641.886L721.88 644.333L717.351 646.814L714.904 651.312L712.424 646.814L707.927 644.333L712.424 641.886L714.904 637.387Z" fill="#171717"/>
<path id="Vector_71" class="stars" d="M978.136 946.572L979.756 949.516L982.699 951.136L979.756 952.757L978.136 955.701L976.516 952.757L973.573 951.136L976.516 949.516L978.136 946.572Z" fill="#171717"/>
<path id="Vector_72" class="stars" d="M982.699 682.105L984.32 685.048L987.262 686.669L984.32 688.29L982.699 691.233L981.079 688.29L978.136 686.669L981.079 685.048L982.699 682.105Z" fill="#171717"/>
<path id="Vector_73" class="stars" d="M320.535 1074.67L322.155 1077.61L325.098 1079.24L322.155 1080.86L320.535 1083.8L318.914 1080.86L315.972 1079.24L318.914 1077.61L320.535 1074.67Z" fill="#171717"/>
<path id="Vector_74" class="stars" opacity="0.29" d="M203.384 548.713L205.005 551.657L207.947 553.278L205.005 554.865L203.384 557.842L201.797 554.865L198.821 553.278L201.797 551.657L203.384 548.713Z" fill="#171717"/>
<path id="Vector_75" class="stars" opacity="0.29" d="M53.4335 608.976L55.0537 611.953L57.9965 613.54L55.0537 615.161L53.4335 618.138L51.8133 615.161L48.8705 613.54L51.8133 611.953L53.4335 608.976Z" fill="#171717"/>
<path id="Vector_76" class="stars" opacity="0.29" d="M421.417 735.918L423.037 738.894L426.013 740.482L423.037 742.103L421.417 745.046L419.829 742.103L416.854 740.482L419.829 738.894L421.417 735.918Z" fill="#171717"/>
<path id="Vector_77" class="stars" opacity="0.29" d="M572.326 809.113L575.534 814.967L581.386 818.142L575.534 821.35L572.326 827.205L569.152 821.35L563.3 818.142L569.152 814.967L572.326 809.113Z" fill="#171717"/>
<path id="Vector_78"class="stars"  opacity="0.29" d="M88.4827 490.468L91.6569 496.323L97.5095 499.531L91.6569 502.706L88.4827 508.56L85.2753 502.706L79.4559 499.531L85.2753 496.323L88.4827 490.468Z" fill="#171717"/>
<path id="Vector_79" class="stars" opacity="0.29" d="M1361.92 740.482L1365.13 746.336L1370.95 749.545L1365.13 752.72L1361.92 758.574L1358.75 752.72L1352.9 749.545L1358.75 746.336L1361.92 740.482Z" fill="#171717"/>
<path id="Vector_80" class="stars" opacity="0.29" d="M105.974 1065.81L107.495 1068.59L110.273 1070.11L107.495 1071.63L105.974 1074.37L104.453 1071.63L101.709 1070.11L104.453 1068.59L105.974 1065.81Z" fill="#171717"/>
<path id="Vector_81" class="stars" opacity="0.29" d="M753.061 1031.81L754.582 1034.55L757.359 1036.07L754.582 1037.59L753.061 1040.37L751.54 1037.59L748.796 1036.07L751.54 1034.55L753.061 1031.81Z" fill="#171717"/>
<path id="Vector_82" class="stars" opacity="0.29" d="M1117.67 686.934L1119.19 689.712L1121.97 691.233L1119.19 692.722L1117.67 695.5L1116.18 692.722L1113.41 691.233L1116.18 689.712L1117.67 686.934Z" fill="#171717"/>
<path id="Vector_83" class="stars" opacity="0.29" d="M1291.2 951.434L1292.72 954.179L1295.5 955.701L1292.72 957.222L1291.2 959.967L1289.68 957.222L1286.93 955.701L1289.68 954.179L1291.2 951.434Z" fill="#171717"/>
<path id="Vector_84" class="stars" opacity="0.29" d="M1185.32 579.605L1186.84 582.351L1189.59 583.872L1186.84 585.394L1185.32 588.139L1183.8 585.394L1181.02 583.872L1183.8 582.351L1185.32 579.605Z" fill="#171717"/>
<path id="Vector_85" class="stars" opacity="0.29" d="M828.516 780.04L831.26 785.067L836.286 787.845L831.26 790.59L828.516 795.618L825.738 790.59L820.713 787.845L825.738 785.067L828.516 780.04Z" fill="#171717"/>
<path id="Vector_86" class="stars" d="M535.756 1056.12L539.526 1063.03L546.403 1066.8L539.526 1070.57L535.756 1077.45L531.987 1070.57L525.076 1066.8L531.987 1063.03L535.756 1056.12Z" fill="black"/>
<path id="Vector_87" class="stars" d="M1132.82 1059.36L1134.14 1061.81L1136.58 1063.13L1134.14 1064.48L1132.82 1066.9L1131.49 1064.48L1129.05 1063.13L1131.49 1061.81L1132.82 1059.36Z" fill="#171717"/>
<path id="Vector_88" class="stars" d="M1202.09 791.847L1203.44 794.295L1205.86 795.618L1203.44 796.974L1202.09 799.388L1200.76 796.974L1198.32 795.618L1200.76 794.295L1202.09 791.847Z" fill="#171717"/>
<path id="Vector_89" class="stars" opacity="0.33" d="M267.2 798.032L269.614 802.398L273.979 804.813L269.614 807.194L267.2 811.593L264.787 807.194L260.422 804.813L264.787 802.398L267.2 798.032Z" fill="#171717"/>
<path id="Vector_90" class="stars" opacity="0.33" d="M982.699 1069.54L984.419 1072.69L987.56 1074.37L984.419 1076.09L982.699 1079.24L980.98 1076.09L977.839 1074.37L980.98 1072.69L982.699 1069.54Z" fill="#171717"/>
<path id="Vector_91" class="stars" opacity="0.33" d="M1053.19 813.313L1054.91 816.422L1058.06 818.142L1054.91 819.862L1053.19 823.004L1051.47 819.862L1048.33 818.142L1051.47 816.422L1053.19 813.313Z" fill="#171717"/>
<path id="Vector_92" class="stars" opacity="0.33" d="M788.639 886.144L790.359 889.286L793.5 891.006L790.359 892.726L788.639 895.835L786.953 892.726L783.812 891.006L786.953 889.286L788.639 886.144Z" fill="#171717"/>
<path id="Vector_93" class="stars" opacity="0.33" d="M1481.82 928.546L1483.54 931.688L1486.68 933.408L1483.54 935.095L1481.82 938.237L1480.1 935.095L1476.99 933.408L1480.1 931.688L1481.82 928.546Z" fill="#171717"/>
<g id="Group_5" opacity="0.22">
<path id="Vector_94" opacity="0.22" d="M254.14 672.612C253.187 676.215 251.534 679.595 249.275 682.559C247.016 685.523 244.196 688.013 240.975 689.886C237.754 691.76 234.195 692.98 230.503 693.478C226.81 693.976 223.056 693.742 219.454 692.788C215.849 691.838 212.467 690.187 209.5 687.929C206.533 685.671 204.041 682.851 202.164 679.628C200.288 676.406 199.065 672.846 198.565 669.15C198.065 665.455 198.299 661.697 199.251 658.092C200.204 654.485 201.858 651.101 204.119 648.133C206.38 645.165 209.202 642.672 212.426 640.795C215.65 638.919 219.212 637.696 222.909 637.196C226.605 636.696 230.364 636.93 233.97 637.884C241.247 639.816 247.459 644.56 251.241 651.072C255.023 657.584 256.066 665.332 254.14 672.612V672.612Z" fill="url(#paint3_linear_59:453)"/>
<path id="Vector_95" opacity="0.22" d="M256.223 664.773C256.223 664.773 259.099 665.633 264.059 667.453C266.506 668.379 269.482 669.536 272.855 671.091C276.767 672.688 280.387 674.923 283.568 677.706C284.118 678.188 284.565 678.777 284.883 679.436C285.201 680.095 285.384 680.811 285.419 681.542C285.451 681.806 285.451 682.073 285.419 682.336V682.733C285.182 683.152 284.881 683.532 284.526 683.858C283.955 684.338 283.307 684.718 282.609 684.982C280.089 685.812 277.458 686.258 274.805 686.305C269.28 686.459 263.752 686.172 258.273 685.445C246.525 683.886 234.886 681.599 223.422 678.599C211.98 675.538 200.738 671.771 189.762 667.32C184.658 665.256 179.727 662.79 175.014 659.945C172.727 658.582 170.655 656.888 168.864 654.917C168.403 654.338 168.035 653.691 167.773 652.999C167.579 652.591 167.478 652.144 167.478 651.692C167.478 651.24 167.579 650.794 167.773 650.386C168.135 649.665 168.713 649.075 169.426 648.699C170.004 648.391 170.614 648.147 171.245 647.971C175.39 647.124 179.647 646.968 183.843 647.508C187.513 647.839 190.687 648.269 193.3 648.699C198.491 649.559 201.433 650.254 201.433 650.254C201.433 650.254 198.425 649.89 193.2 649.46C190.588 649.228 187.414 648.997 183.777 648.931C179.787 648.766 175.794 649.144 171.906 650.055C171.448 650.213 171.006 650.413 170.584 650.65C170.43 650.718 170.295 650.82 170.187 650.948V650.948C170.114 651.066 170.048 651.187 169.989 651.312C169.724 651.643 169.989 652.47 170.782 653.263C172.454 654.935 174.372 656.34 176.469 657.431C181.181 659.928 186.039 662.137 191.018 664.046C201.927 668.261 213.079 671.817 224.414 674.696C235.563 677.844 246.892 680.318 258.339 682.105C263.618 682.889 268.941 683.353 274.276 683.494C278.938 683.494 285.783 682.733 281.848 679.161C278.872 676.442 275.534 674.149 271.929 672.348C268.622 670.595 265.878 669.239 263.497 668.147C259 665.931 256.223 664.773 256.223 664.773Z" fill="url(#paint4_linear_59:453)"/>
</g>
<path class="light" id="Vector_96" d="M356.014 825.915L485.166 944.521C485.498 944.856 485.683 945.308 485.683 945.778C485.683 946.249 485.498 946.701 485.166 947.035C484.832 947.366 484.38 947.552 483.91 947.552C483.439 947.552 482.988 947.366 482.654 947.035L349.5 832.927C349.013 832.512 348.615 832.004 348.328 831.433C348.04 830.862 347.87 830.239 347.827 829.601C347.784 828.963 347.869 828.323 348.076 827.718C348.284 827.114 348.611 826.557 349.037 826.08V826.08C349.474 825.594 350.005 825.202 350.599 824.929C351.193 824.655 351.836 824.506 352.489 824.491C353.143 824.475 353.793 824.594 354.399 824.838C355.005 825.083 355.554 825.45 356.014 825.915V825.915Z" fill="url(#paint5_linear_59:453)"/>
<path  class="light" id="Vector_97" style="mix-blend-mode:screen" d="M404.289 871.294L483.447 944.058C483.645 944.262 483.756 944.535 483.756 944.819C483.756 945.103 483.645 945.376 483.447 945.58V945.58C483.349 945.682 483.23 945.763 483.1 945.818C482.969 945.874 482.828 945.902 482.687 945.902C482.545 945.902 482.404 945.874 482.274 945.818C482.143 945.763 482.025 945.682 481.926 945.58L400.519 875.692C400.22 875.439 399.975 875.128 399.797 874.778C399.62 874.428 399.514 874.046 399.487 873.655C399.459 873.263 399.51 872.871 399.636 872.499C399.762 872.128 399.961 871.785 400.222 871.492V871.492C400.743 870.941 401.458 870.612 402.216 870.575C402.973 870.538 403.716 870.796 404.289 871.294V871.294Z" fill="url(#paint6_linear_59:453)"/>
<g id="Group_6" opacity="0.33">
<path id="Vector_98" opacity="0.33" d="M1045.82 687.959L1107.82 744.914C1107.9 744.991 1107.96 745.084 1108.01 745.186C1108.05 745.288 1108.07 745.398 1108.07 745.509C1108.07 745.621 1108.05 745.731 1108.01 745.833C1107.96 745.935 1107.9 746.028 1107.82 746.105C1107.74 746.185 1107.65 746.248 1107.55 746.292C1107.44 746.335 1107.33 746.358 1107.22 746.358C1107.11 746.358 1107 746.335 1106.9 746.292C1106.8 746.248 1106.7 746.185 1106.63 746.105L1042.68 691.3C1042.21 690.891 1041.92 690.314 1041.88 689.694C1041.84 689.074 1042.04 688.462 1042.45 687.992V687.992C1042.66 687.76 1042.92 687.574 1043.21 687.445C1043.5 687.317 1043.81 687.249 1044.13 687.246C1044.44 687.243 1044.76 687.305 1045.05 687.427C1045.34 687.55 1045.6 687.731 1045.82 687.959V687.959Z" fill="url(#paint7_linear_59:453)"/>
<path id="Vector_99" style="mix-blend-mode:screen" opacity="0.33" d="M1069 709.755L1106.99 744.649C1107.04 744.696 1107.08 744.752 1107.11 744.815C1107.14 744.877 1107.15 744.945 1107.15 745.013C1107.15 745.082 1107.14 745.149 1107.11 745.212C1107.08 745.274 1107.04 745.331 1106.99 745.377V745.377C1106.89 745.47 1106.76 745.522 1106.63 745.522C1106.49 745.522 1106.36 745.47 1106.26 745.377L1067.08 711.806C1066.95 711.674 1066.84 711.517 1066.77 711.343C1066.7 711.17 1066.66 710.985 1066.66 710.797C1066.66 710.61 1066.7 710.424 1066.77 710.251C1066.84 710.078 1066.95 709.921 1067.08 709.788C1067.34 709.537 1067.68 709.394 1068.03 709.387C1068.39 709.381 1068.74 709.513 1069 709.755V709.755Z" fill="url(#paint8_linear_59:453)"/>
</g>
<g id="Group_7" opacity="0.35">
<path id="Vector_100" opacity="0.35" d="M94.9305 781.726L266.407 939.229C266.843 939.669 267.088 940.264 267.088 940.883C267.088 941.503 266.843 942.097 266.407 942.537V942.537C265.994 942.998 265.418 943.279 264.8 943.323C264.183 943.366 263.573 943.167 263.1 942.768L86.3996 791.451C85.7563 790.897 85.2298 790.221 84.8509 789.461C84.472 788.702 84.2482 787.875 84.1928 787.028C84.1373 786.181 84.2515 785.331 84.5282 784.529C84.8049 783.727 85.2388 782.987 85.8045 782.355V782.355C86.3557 781.704 87.0318 781.17 87.7927 780.785C88.5537 780.4 89.3842 780.172 90.2349 780.113C91.0856 780.055 91.9393 780.167 92.7459 780.444C93.5524 780.721 94.2953 781.157 94.9305 781.726V781.726Z" fill="url(#paint9_linear_59:453)"/>
<path id="Vector_101" style="mix-blend-mode:screen" opacity="0.35" d="M159.143 841.989L264.257 938.502C264.52 938.778 264.667 939.145 264.667 939.527C264.667 939.909 264.52 940.276 264.257 940.552C263.985 940.823 263.616 940.975 263.232 940.975C262.848 940.975 262.48 940.823 262.207 940.552L153.853 847.711C153.459 847.37 153.137 846.954 152.905 846.487C152.673 846.02 152.537 845.512 152.503 844.992C152.469 844.472 152.539 843.951 152.708 843.458C152.877 842.965 153.143 842.511 153.489 842.121V842.121C153.844 841.729 154.276 841.414 154.757 841.194C155.238 840.974 155.759 840.854 156.288 840.842C156.816 840.829 157.342 840.925 157.833 841.122C158.324 841.319 158.77 841.614 159.143 841.989V841.989Z" fill="url(#paint10_linear_59:453)"/>
<path id="Vector_102" opacity="0.35" d="M36.3386 798.793L115.034 871.062C115.232 871.266 115.343 871.538 115.343 871.823C115.343 872.107 115.232 872.38 115.034 872.583V872.583C114.935 872.685 114.817 872.767 114.687 872.822C114.556 872.877 114.415 872.906 114.273 872.906C114.132 872.906 113.991 872.877 113.861 872.822C113.73 872.767 113.612 872.685 113.513 872.583L32.3708 803.126C32.0788 802.87 31.8403 802.56 31.6688 802.211C31.4974 801.863 31.3966 801.485 31.372 801.097C31.3474 800.71 31.3995 800.322 31.5256 799.955C31.6516 799.587 31.8491 799.249 32.1064 798.959V798.959C32.3669 798.659 32.6858 798.417 33.0436 798.245C33.4014 798.074 33.7905 797.977 34.1869 797.962C34.5833 797.946 34.9785 798.012 35.3485 798.155C35.7186 798.298 36.0555 798.515 36.3386 798.793V798.793Z" fill="url(#paint11_linear_59:453)"/>
<path id="Vector_103" style="mix-blend-mode:screen" opacity="0.35" d="M65.7336 826.444L113.976 870.83C114.04 870.889 114.091 870.961 114.126 871.041C114.161 871.12 114.179 871.206 114.179 871.294C114.179 871.381 114.161 871.467 114.126 871.546C114.091 871.626 114.04 871.698 113.976 871.757V871.757C113.852 871.878 113.686 871.946 113.513 871.946C113.34 871.946 113.174 871.878 113.05 871.757L63.4521 829.156C63.2832 828.99 63.149 828.792 63.0574 828.573C62.9658 828.354 62.9185 828.12 62.9185 827.883C62.9185 827.646 62.9658 827.411 63.0574 827.192C63.149 826.974 63.2832 826.776 63.4521 826.609C63.7496 826.313 64.1434 826.133 64.5621 826.103C64.9808 826.073 65.3966 826.194 65.7336 826.444V826.444Z" fill="url(#paint12_linear_59:453)"/>
</g>
<path id="Vector_104" d="M1309.28 804.25L1387.98 876.519C1388.18 876.723 1388.29 876.996 1388.29 877.28C1388.29 877.564 1388.18 877.837 1387.98 878.041V878.041C1387.88 878.143 1387.76 878.224 1387.63 878.279C1387.5 878.335 1387.36 878.363 1387.22 878.363C1387.08 878.363 1386.94 878.335 1386.81 878.279C1386.68 878.224 1386.56 878.143 1386.46 878.041L1305.35 808.583C1305.05 808.33 1304.81 808.019 1304.63 807.669C1304.45 807.319 1304.35 806.937 1304.32 806.546C1304.29 806.154 1304.34 805.761 1304.47 805.39C1304.59 805.019 1304.79 804.676 1305.05 804.383V804.383C1305.32 804.09 1305.64 803.854 1306 803.688C1306.36 803.522 1306.75 803.43 1307.14 803.418C1307.54 803.406 1307.93 803.473 1308.3 803.616C1308.67 803.759 1309 803.975 1309.28 804.25Z" fill="url(#paint13_linear_59:453)"/>
<path id="Vector_105" style="mix-blend-mode:screen" d="M1338.71 831.901L1386.92 876.189C1386.99 876.247 1387.04 876.319 1387.07 876.399C1387.11 876.478 1387.13 876.565 1387.13 876.652C1387.13 876.739 1387.11 876.825 1387.07 876.905C1387.04 876.984 1386.99 877.056 1386.92 877.115V877.115C1386.86 877.179 1386.79 877.23 1386.71 877.265C1386.63 877.3 1386.55 877.318 1386.46 877.318C1386.37 877.318 1386.29 877.3 1386.21 877.265C1386.13 877.23 1386.05 877.179 1386 877.115L1336.27 834.448C1336.08 834.298 1335.93 834.112 1335.81 833.9C1335.7 833.688 1335.63 833.456 1335.62 833.218C1335.6 832.979 1335.63 832.739 1335.71 832.513C1335.78 832.286 1335.91 832.078 1336.07 831.901V831.901C1336.23 831.717 1336.44 831.569 1336.67 831.468C1336.89 831.367 1337.14 831.315 1337.39 831.315C1337.64 831.315 1337.89 831.367 1338.11 831.468C1338.34 831.569 1338.55 831.717 1338.71 831.901V831.901Z" fill="url(#paint14_linear_59:453)"/>
<path id="Vector_106" style="mix-blend-mode:multiply" d="M498.955 792.939C616.741 792.939 712.226 697.426 712.226 579.605C712.226 461.785 616.741 366.272 498.955 366.272C381.168 366.272 285.684 461.785 285.684 579.605C285.684 697.426 381.168 792.939 498.955 792.939Z" fill="url(#paint15_radial_59:453)"/>
<path id="Vector_107" style="mix-blend-mode:multiply" d="M1858.36 1233.93C1901.76 1126.33 1849.73 1003.91 1742.16 960.499C1634.59 917.09 1512.2 969.13 1468.8 1076.73C1425.41 1184.34 1477.43 1306.76 1585 1350.17C1692.58 1393.58 1814.96 1341.54 1858.36 1233.93Z" fill="url(#paint16_radial_59:453)"/>
<path id="Vector_108" style="mix-blend-mode:multiply" d="M1489.67 707.449C1592.25 587.39 1603.42 428.518 1514.62 352.597C1425.81 276.676 1270.66 312.457 1168.08 432.516C1065.5 552.574 1054.33 711.447 1143.13 787.368C1231.94 863.288 1387.08 827.508 1489.67 707.449Z" fill="url(#paint17_radial_59:453)"/>
<path id="Vector_109" style="mix-blend-mode:multiply" d="M1561.79 712.066C1664.37 592.008 1675.54 433.135 1586.74 357.214C1497.94 281.293 1342.79 317.074 1240.21 437.133C1137.63 557.192 1126.46 716.064 1215.26 791.985C1304.06 867.906 1459.21 832.125 1561.79 712.066Z" fill="url(#paint18_radial_59:453)"/>
<path id="Vector_110" style="mix-blend-mode:multiply" d="M1515.74 760.025C1618.32 639.967 1629.49 481.094 1540.69 405.173C1451.89 329.252 1296.74 365.033 1194.16 485.092C1091.57 605.151 1080.4 764.023 1169.21 839.944C1258.01 915.865 1413.16 880.084 1515.74 760.025Z" fill="url(#paint19_radial_59:453)"/>
<path id="Vector_111" style="mix-blend-mode:multiply" d="M1614.93 533.371C1717.52 413.312 1738.56 262.877 1661.93 197.365C1585.3 131.852 1440.02 176.071 1337.44 296.129C1234.86 416.188 1213.82 566.623 1290.44 632.135C1367.07 697.648 1512.35 653.429 1614.93 533.371Z" fill="url(#paint20_radial_59:453)"/>
<path id="Vector_112" style="mix-blend-mode:multiply" d="M1674.77 431.346C1777.35 311.288 1798.39 160.852 1721.76 95.34C1645.13 29.8277 1499.85 74.0463 1397.27 194.105C1294.69 314.164 1273.65 464.599 1350.28 530.111C1426.91 595.623 1572.19 551.405 1674.77 431.346Z" fill="url(#paint21_radial_59:453)"/>
<path id="Vector_113" d="M1454.94 311.864L1259.06 587.113L1221.03 560.025L1416.88 284.775C1430.97 265.009 1447.94 247.471 1467.24 232.748L1483.44 220.411C1483.85 220.092 1484.29 219.825 1484.76 219.617C1485.96 218.998 1487.31 218.759 1488.65 218.931C1489.98 219.104 1491.24 219.68 1492.23 220.582C1493.23 221.484 1493.93 222.671 1494.24 223.982C1494.55 225.293 1494.45 226.667 1493.95 227.919L1487.61 247.268C1480 270.312 1468.99 292.085 1454.94 311.864V311.864Z" fill="url(#paint22_linear_59:453)"/>
<path id="Vector_114" d="M1445.38 305.05L1249.54 580.3L1221 559.992L1416.85 284.742C1430.93 264.976 1447.91 247.438 1467.2 232.715L1483.41 220.378C1483.81 220.059 1484.26 219.792 1484.73 219.585C1484.69 220.105 1484.58 220.618 1484.4 221.106L1478.05 240.455C1470.48 263.513 1459.47 285.291 1445.38 305.05V305.05Z" fill="#FFECFF"/>
<path id="Vector_115" d="M1447.53 306.307L1251.69 581.524L1223.15 561.216L1418.93 285.999C1433.01 266.225 1449.98 248.686 1469.29 233.972L1485.49 221.602C1485.9 221.283 1486.34 221.016 1486.81 220.808C1486.78 221.33 1486.67 221.843 1486.48 222.33L1480.13 241.679C1472.58 264.74 1461.59 286.528 1447.53 306.307V306.307Z" fill="#232323"/>
<path id="Vector_116" d="M1256.74 615.525L1194.95 571.535L1235.95 539.055L1274 566.111L1256.74 615.525Z" fill="url(#paint23_radial_59:453)"/>
<path id="Vector_117" d="M1241.67 604.809L1194.95 571.535L1235.95 539.055L1258.93 555.395L1241.67 604.809Z" fill="#CC7DFF"/>
<path id="Vector_118" d="M1244.94 606.727L1194.95 571.535L1239.22 540.941L1262.2 557.313L1244.94 606.727Z" fill="#371582"/>
<path id="Vector_119" d="M1246.65 608.499L1203.6 577.852L1201.78 580.412L1244.83 611.059L1246.65 608.499Z" fill="#371582"/>
<path id="Vector_120" d="M1274.76 565.074L1236.72 537.994L1235.91 539.125L1273.95 566.206L1274.76 565.074Z" fill="url(#paint24_radial_59:453)"/>
<path id="Vector_121" d="M1591.79 413.172L1395.78 688.422L1357.76 661.334L1553.64 386.084C1567.73 366.294 1584.75 348.753 1604.09 334.057L1620.3 321.72C1620.7 321.401 1621.15 321.134 1621.62 320.926C1622.81 320.313 1624.16 320.077 1625.49 320.249C1626.82 320.421 1628.07 320.993 1629.07 321.89C1630.06 322.787 1630.76 323.966 1631.08 325.271C1631.39 326.575 1631.29 327.944 1630.81 329.195L1624.46 348.577C1616.86 371.62 1605.85 393.394 1591.79 413.172Z" fill="url(#paint25_linear_59:453)"/>
<path id="Vector_122" d="M1582.27 406.392L1386.43 681.642L1357.89 661.334L1553.77 386.084C1567.83 366.304 1584.79 348.763 1604.09 334.057L1620.3 321.72C1620.7 321.401 1621.15 321.134 1621.62 320.926C1621.58 321.443 1621.48 321.954 1621.32 322.448L1614.94 341.797C1607.37 364.851 1596.35 386.629 1582.27 406.392V406.392Z" fill="#DDA9FF"/>
<path id="Vector_123" d="M1583.2 407.318L1387.32 682.568L1358.82 662.227L1554.66 387.01C1568.74 367.256 1585.7 349.73 1604.99 335.016L1621.19 322.646C1621.61 322.326 1622.06 322.059 1622.55 321.852C1622.5 322.371 1622.39 322.882 1622.21 323.374L1615.87 342.722C1608.26 365.765 1597.25 387.538 1583.2 407.318V407.318Z" fill="#232323"/>
<path id="Vector_124" d="M1393.6 716.866L1331.8 672.877L1372.84 640.364L1410.86 667.452L1393.6 716.866Z" fill="url(#paint26_radial_59:453)"/>
<path id="Vector_125" d="M1378.56 706.15L1331.8 672.877L1372.84 640.364L1395.82 656.736L1378.56 706.15Z" fill="#CC7DFF"/>
<path id="Vector_126" d="M1380.8 707.87L1334.05 674.597L1375.08 642.117L1398.07 658.456L1380.8 707.87Z" fill="url(#paint27_radial_59:453)"/>
<path id="Vector_127" d="M1383.52 709.818L1340.47 679.171L1338.65 681.731L1381.7 712.378L1383.52 709.818Z" fill="url(#paint28_radial_59:453)"/>
<path id="Vector_128" d="M1411.65 666.445L1373.62 639.365L1372.81 640.497L1410.85 667.577L1411.65 666.445Z" fill="url(#paint29_radial_59:453)"/>
<path id="Vector_129" d="M1608.79 320.397L1345.72 690.042L1232.28 609.273L1495.34 239.628C1523.82 199.574 1563.38 168.719 1609.15 150.855L1632.53 141.726C1635.22 140.674 1638.13 140.31 1641 140.665C1643.87 141.021 1646.6 142.085 1648.95 143.763C1651.31 145.44 1653.21 147.678 1654.48 150.273C1655.75 152.868 1656.35 155.739 1656.24 158.627L1655.28 183.764C1653.41 232.865 1637.26 280.352 1608.79 320.397V320.397Z" fill="#E79924"/>
<path id="Vector_130" d="M1584.98 303.463L1321.95 673.108L1232.28 609.274L1495.34 239.628C1523.82 199.574 1563.38 168.719 1609.15 150.855L1632.53 141.726L1631.54 166.797C1629.66 215.916 1613.48 263.416 1584.98 303.463V303.463Z" fill="#CC7DFF"/>
<path id="Vector_131" d="M1586.14 303.76L1323.04 673.439L1233.47 609.538L1496.5 239.859C1525 199.831 1564.55 168.991 1610.31 151.119L1633.69 141.991L1632.73 167.061C1630.86 216.197 1614.66 263.712 1586.14 303.76V303.76Z" fill="url(#paint30_linear_59:453)"/>
<path id="Vector_132" d="M1309.62 619.99L1194.88 561.414L1250.89 487.062L1427.72 443.105L1309.62 619.99Z" fill="#FFDCFF"/>
<path id="Vector_133" d="M1311.83 622.57L1199.18 558.14L1248.78 492.949L1429.94 445.718L1311.83 622.57Z" fill="url(#paint31_radial_59:453)"/>
<path id="Vector_134" d="M1326.35 631.698L1420.52 722.092L1471.14 643.705L1454.74 462.156L1326.35 631.698Z" fill="#FFE4FF"/>
<path id="Vector_135" d="M1307.5 625.877L1255.98 596.374L1194.88 561.414L1248.78 492.949L1340.2 470.227L1425.61 448.993L1307.5 625.877Z" fill="#232323"/>
<path id="Vector_136" d="M1255.98 596.374L1194.88 561.414L1248.78 492.949L1340.2 470.226L1255.98 596.374Z" fill="#232323"/>
<path id="Vector_137" d="M1420.52 722.092L1366.95 675.324L1322.74 636.726L1451.17 467.184L1459 553.84L1467.57 648.732L1420.52 722.092Z" fill="#232323"/>
<path id="Vector_138" d="M1420.52 722.092L1366.95 675.324L1459 553.84L1467.57 648.732L1420.52 722.092Z" fill="#232323"/>
<path id="Vector_139" d="M1544.94 398.189L1357.49 661.598L1272.42 601.038L1459.86 337.629C1482.82 305.355 1512.7 278.628 1547.32 259.407C1554.77 255.283 1562.43 251.513 1570.3 248.095C1570.85 247.842 1571.41 247.632 1571.99 247.467C1574.41 246.691 1576.99 246.497 1579.5 246.899C1582.02 247.301 1584.41 248.289 1586.47 249.782C1588.8 251.435 1590.66 253.662 1591.87 256.247C1593.08 258.832 1593.6 261.687 1593.38 264.533C1592.72 272.934 1591.69 281.269 1590.24 289.505C1587.58 304.875 1583.57 319.982 1578.27 334.652C1570.09 357.244 1558.88 378.619 1544.94 398.189V398.189Z" fill="url(#paint32_linear_59:453)"/>
<path id="Vector_140" d="M1523.51 382.942L1336.07 646.351L1272.42 601.038L1459.86 337.629C1482.82 305.355 1512.7 278.628 1547.32 259.407C1554.77 255.283 1562.43 251.513 1570.3 248.095C1570.85 247.842 1571.41 247.632 1571.99 247.467C1572.02 248.073 1572.02 248.68 1571.99 249.286C1571.33 257.687 1570.3 265.823 1568.85 274.257C1566.21 289.634 1562.21 304.744 1556.88 319.405C1548.69 341.999 1537.46 363.374 1523.51 382.942V382.942Z" fill="#FFE4FF"/>
<path id="Vector_141" d="M1525.93 384.364L1338.48 647.773L1274.83 602.427L1462.28 339.018C1485.23 306.754 1515.12 280.038 1549.73 260.829C1557.17 256.695 1564.85 252.891 1572.68 249.484C1573.28 249.253 1573.84 249.021 1574.4 248.856C1574.43 249.462 1574.43 250.069 1574.4 250.675C1573.74 259.076 1572.72 267.411 1571.26 275.647C1568.6 291.017 1564.59 306.124 1559.29 320.794C1551.09 343.396 1539.87 364.781 1525.93 384.364V384.364Z" fill="url(#paint33_linear_59:453)"/>
<path id="Vector_142" d="M1343.9 703.537L1237.47 627.762C1236.56 627.107 1235.81 626.252 1235.28 625.263C1234.75 624.273 1234.46 623.176 1234.42 622.055C1234.38 620.934 1234.6 619.82 1235.06 618.797C1235.52 617.773 1236.21 616.869 1237.07 616.153L1311.2 555.163C1316.2 551.045 1322.43 548.692 1328.9 548.471C1335.37 548.25 1341.74 550.172 1347.01 553.939L1377.8 575.835C1383.07 579.595 1386.96 584.988 1388.87 591.181C1390.78 597.374 1390.59 604.023 1388.34 610.1L1355.01 700.13C1354.62 701.181 1353.99 702.127 1353.17 702.895C1352.35 703.664 1351.37 704.235 1350.3 704.564C1349.22 704.893 1348.09 704.971 1346.98 704.793C1345.87 704.615 1344.82 704.186 1343.9 703.537V703.537Z" fill="#FFE7FF"/>
<path id="Vector_143" d="M1384.41 614.532L1351.71 702.909C1351.31 703.938 1350.68 704.864 1349.88 705.614C1349.07 706.365 1348.1 706.921 1347.04 707.24C1345.99 707.559 1344.87 707.633 1343.78 707.455C1342.7 707.278 1341.66 706.854 1340.76 706.216L1292.92 672.381L1285.28 666.956L1236.28 632.062C1235.38 631.416 1234.64 630.573 1234.12 629.598C1233.6 628.623 1233.31 627.542 1233.27 626.437C1233.24 625.333 1233.45 624.234 1233.9 623.226C1234.35 622.217 1235.03 621.325 1235.88 620.618L1308.62 560.72C1313.54 556.689 1319.66 554.389 1326.01 554.173C1332.37 553.958 1338.62 555.84 1343.8 559.529L1353.56 566.475L1365.43 574.942L1373.99 581.061C1379.16 584.728 1382.97 589.99 1384.85 596.037C1386.73 602.084 1386.58 608.582 1384.41 614.532V614.532Z" fill="url(#paint34_linear_59:453)"/>
<path id="Vector_144" d="M1272.6 657.725L1238.44 633.406L1234.99 638.257L1269.15 662.575L1272.6 657.725Z" fill="#7C26A4"/>
<path id="Vector_145" d="M1334.8 701.999L1300.64 677.681L1297.19 682.531L1331.35 706.85L1334.8 701.999Z" fill="#7C26A4"/>
<path id="Vector_146" d="M1548.91 341.83C1548.08 341.209 1547.51 340.301 1547.32 339.283C1545.99 331.44 1541.61 324.444 1535.13 319.831C1528.65 315.217 1520.61 313.363 1512.77 314.675C1512.26 314.759 1511.73 314.74 1511.22 314.619C1510.72 314.498 1510.24 314.276 1509.82 313.968C1509.4 313.66 1509.05 313.271 1508.79 312.825C1508.52 312.378 1508.34 311.883 1508.27 311.367C1508.19 310.854 1508.21 310.329 1508.33 309.823C1508.45 309.318 1508.67 308.841 1508.98 308.422C1509.29 308.003 1509.67 307.65 1510.12 307.383C1510.57 307.116 1511.06 306.942 1511.58 306.869C1521.46 305.213 1531.6 307.55 1539.77 313.368C1547.93 319.185 1553.46 328.006 1555.13 337.894C1555.21 338.407 1555.19 338.932 1555.07 339.438C1554.95 339.943 1554.73 340.42 1554.42 340.839C1554.11 341.258 1553.72 341.611 1553.28 341.878C1552.83 342.145 1552.33 342.319 1551.82 342.392C1550.81 342.594 1549.77 342.392 1548.91 341.83V341.83Z" fill="#171717"/>
<path id="Vector_147" d="M1590.24 289.505C1584.19 272.604 1570.4 262.317 1547.26 259.407C1554.71 255.283 1562.37 251.513 1570.24 248.095C1572.85 246.959 1575.71 246.518 1578.54 246.813C1581.37 247.109 1584.08 248.131 1586.4 249.782C1588.73 251.435 1590.59 253.662 1591.8 256.247C1593.01 258.832 1593.53 261.687 1593.32 264.533C1592.72 272.934 1591.7 281.269 1590.24 289.505Z" fill="#171717"/>
<g id="Vector_148" style="mix-blend-mode:multiply" opacity="0.42">
<path d="M1368.5 570.708L1365.46 574.777L1292.92 672.381L1285.28 666.957L1353.59 566.475L1356.44 562.274C1359.11 562.08 1361.77 562.812 1363.97 564.348C1366.17 565.884 1367.77 568.13 1368.5 570.708V570.708Z" fill="#552C84"/>
</g>
<path id="Vector_149" d="M1353.99 559.926C1356.68 559.747 1359.36 560.505 1361.56 562.072C1363.76 563.64 1365.35 565.92 1366.06 568.526L1276.78 688.488C1276.13 689.367 1275.16 689.955 1274.08 690.128C1273 690.301 1271.89 690.045 1270.99 689.414C1270.1 688.775 1269.49 687.812 1269.3 686.73C1269.11 685.648 1269.35 684.533 1269.97 683.626L1353.99 559.926Z" fill="#232323"/>
<g id="Vector_150" style="mix-blend-mode:screen">
<path d="M739.108 643.87C739.112 646.956 738.508 650.014 737.33 652.867C736.152 655.72 734.423 658.312 732.243 660.496C730.063 662.68 727.473 664.413 724.623 665.595C721.772 666.778 718.717 667.386 715.631 667.386C712.545 667.386 709.49 666.778 706.639 665.595C703.789 664.413 701.2 662.68 699.019 660.496C696.839 658.312 695.11 655.72 693.932 652.867C692.755 650.014 692.15 646.956 692.155 643.87C692.155 637.642 694.628 631.669 699.031 627.265C703.433 622.861 709.405 620.387 715.631 620.387C721.857 620.387 727.829 622.861 732.231 627.265C736.634 631.669 739.108 637.642 739.108 643.87Z" fill="#171717"/>
</g>
<g id="Group 16">
<path id="Vector_151" d="M472 682C527.229 682 572 637.228 572 582C572 526.772 527.229 482 472 482C416.772 482 372 526.772 372 582C372 637.228 416.772 682 472 682Z" fill="url(#paint35_linear_59:453)"/>
<path id="Vector_152" d="M462.164 524.623C468.502 524.623 473.639 519.485 473.639 513.148C473.639 506.81 468.502 501.672 462.164 501.672C455.826 501.672 450.689 506.81 450.689 513.148C450.689 519.485 455.826 524.623 462.164 524.623Z" fill="#CBCBCB"/>
<path id="Vector_153" d="M481.836 639.377C488.174 639.377 493.312 634.239 493.312 627.902C493.312 621.564 488.174 616.426 481.836 616.426C475.498 616.426 470.361 621.564 470.361 627.902C470.361 634.239 475.498 639.377 481.836 639.377Z" fill="#CBCBCB"/>
<path id="Vector_154" d="M526.098 572.164C530.625 572.164 534.295 568.494 534.295 563.967C534.295 559.44 530.625 555.77 526.098 555.77C521.571 555.77 517.902 559.44 517.902 563.967C517.902 568.494 521.571 572.164 526.098 572.164Z" fill="#CBCBCB"/>
<path id="Vector_155" d="M432.656 616.426C447.142 616.426 458.885 604.683 458.885 590.197C458.885 575.711 447.142 563.967 432.656 563.967C418.17 563.967 406.426 575.711 406.426 590.197C406.426 604.683 418.17 616.426 432.656 616.426Z" fill="#CBCBCB"/>
</g>
<g id="Group 254" filter="url(#filter0_d_59:453)">
<path id="Vector_156" d="M1648.16 1086.34C1645.56 1099.72 1640.35 1112.46 1632.82 1123.83C1625.3 1135.2 1615.6 1144.97 1604.3 1152.59C1592.99 1160.2 1580.3 1165.52 1566.94 1168.22C1553.57 1170.93 1539.81 1170.98 1526.43 1168.36C1523.26 1167.73 1520.17 1166.98 1517.15 1166.09C1492.35 1158.83 1471.15 1142.58 1457.71 1120.51C1444.27 1098.44 1439.55 1072.15 1444.48 1046.78C1446.21 1037.84 1449.14 1029.18 1453.17 1021.02C1464.27 998.499 1483.15 980.766 1506.33 971.108C1529.5 961.45 1555.39 960.523 1579.2 968.498C1603.01 976.473 1623.11 992.809 1635.79 1014.48C1648.47 1036.15 1652.87 1061.68 1648.16 1086.34V1086.34Z" fill="url(#paint36_linear_59:453)"/>
<path id="Vector_157" d="M1492.73 996.189C1494.81 996.785 1496.9 997.68 1498.91 998.351C1501.33 999.18 1503.83 999.73 1506.37 999.991C1507.98 1000.26 1509.63 1000.13 1511.18 999.619C1514.05 998.463 1515.47 995.331 1517.48 993.02C1521.39 989.184 1526.52 986.848 1531.98 986.421C1537.39 986.041 1542.73 985.104 1547.94 983.624C1549.16 983.282 1550.3 982.691 1551.28 981.889C1552.26 981.087 1553.07 980.092 1553.65 978.964C1554.02 977.995 1554.13 976.988 1554.43 976.019C1555.47 972.477 1565.28 969.904 1563.23 966.511C1562.67 965.765 1561.93 965.184 1561.06 964.834C1556.13 962.748 1550.79 961.793 1545.44 962.038C1516.81 961.739 1490.56 969.942 1473.04 993.691C1471.58 995.374 1470.6 997.423 1470.21 999.619C1469.46 1007.08 1476.32 1004.02 1479.42 1001.07C1481.17 998.994 1483.32 997.295 1485.75 996.077C1488.03 995.386 1490.47 995.425 1492.73 996.189V996.189Z" fill="white"/>
<path id="Vector_158" d="M1642.27 1057.93C1641.3 1062.13 1639.23 1065.99 1636.28 1069.12C1633.32 1072.25 1629.59 1074.54 1625.45 1075.75C1623.46 1076.06 1621.55 1076.78 1619.86 1077.88C1618.72 1079.09 1617.85 1080.53 1617.31 1082.1C1616.77 1083.68 1616.57 1085.35 1616.73 1087.01C1616.43 1090.09 1616.61 1093.19 1617.25 1096.22C1617.7 1097.97 1618.44 1099.72 1618.74 1101.55C1619.67 1107.25 1615.83 1112.73 1612.22 1117.1C1611.62 1118.05 1610.75 1118.8 1609.72 1119.26C1608.8 1119.48 1607.83 1119.39 1606.96 1119C1606.1 1118.61 1605.39 1117.94 1604.95 1117.1C1604.12 1115.37 1603.54 1113.54 1603.23 1111.65C1600.92 1101.7 1593.35 1093.94 1586.08 1086.79C1584.52 1084.85 1582.33 1083.53 1579.89 1083.06C1577.54 1083.06 1575.01 1084.18 1573.03 1083.06C1571.06 1081.94 1571.17 1078.81 1570.98 1076.35C1570.46 1070.34 1566.02 1065.16 1565.58 1059.2C1565.56 1055.87 1566.45 1052.59 1568.16 1049.73C1569.87 1046.87 1572.33 1044.54 1575.27 1042.98C1581.19 1039.9 1587.62 1037.96 1594.25 1037.24L1607.63 1035C1609.71 1034.82 1611.71 1034.09 1613.41 1032.87C1614.63 1031.66 1615.39 1030.07 1615.57 1028.36C1617.18 1014.79 1592.01 1014.9 1586.05 1022.77C1584.51 1025.43 1583.26 1028.24 1582.32 1031.16C1580.94 1033.96 1578.18 1036.57 1575.16 1035.97C1573.35 1035.31 1571.68 1034.31 1570.24 1033.02C1565.91 1030.08 1563.71 1034.7 1559.61 1035.22C1558.44 1035.31 1557.26 1035.05 1556.24 1034.46C1555.21 1033.88 1554.39 1033 1553.87 1031.94C1552.88 1029.81 1552.68 1027.39 1553.31 1025.12C1554.14 1022.93 1554.74 1020.65 1555.1 1018.33C1555.1 1015.99 1553.76 1013.3 1551.37 1013.19C1551.25 1014.02 1550.96 1014.83 1550.52 1015.54C1550.08 1016.26 1549.49 1016.88 1548.8 1017.37C1547.87 1016.76 1546.75 1016.49 1545.64 1016.61C1544.53 1016.73 1543.5 1017.24 1542.72 1018.04C1540.97 1019.42 1539.74 1021.39 1537.88 1022.62C1536.01 1023.85 1533.14 1024.15 1531.95 1022.29C1531.46 1021.48 1531.27 1020.53 1531.39 1019.6C1531.72 1015.35 1535.64 1012.41 1538.14 1008.9C1541.49 1004.13 1542.54 997.717 1547.23 993.989C1551.93 990.261 1557.37 991.528 1562.52 991.304C1568.82 991.081 1569.98 989.217 1574.52 985.488C1580.07 980.942 1585.98 976.864 1592.2 973.297C1613.78 983.872 1631.01 1001.63 1640.93 1023.52C1640.21 1025.94 1639.23 1028.27 1638.02 1030.49C1636.99 1032.04 1636.09 1033.66 1635.3 1035.34C1634.81 1036.68 1634.64 1038.12 1634.8 1039.55C1634.96 1040.97 1635.45 1042.34 1636.23 1043.54C1637.76 1045.89 1640.4 1047.53 1641.75 1050.02C1642.83 1052.52 1643.02 1055.31 1642.27 1057.93V1057.93Z" fill="url(#paint37_linear_59:453)"/>
<path id="Vector_159" d="M1483.37 1104.98L1478 1101.7C1475.94 1100.31 1473.68 1099.25 1471.29 1098.57C1467.08 1097.6 1462.6 1099.09 1458.35 1098.57C1455.87 1097.95 1453.5 1096.97 1451.3 1095.66C1449.55 1094.8 1447.8 1093.87 1446.12 1092.9C1442.11 1077.74 1441.6 1061.87 1444.63 1046.48C1446.36 1037.55 1449.28 1028.88 1453.32 1020.72C1454.47 1020.2 1455.65 1019.75 1456.86 1019.38C1460.24 1017.65 1463.95 1016.63 1467.75 1016.4C1474.98 1017.25 1470.58 1024.97 1468.86 1029.07C1467.57 1031.58 1466.94 1034.38 1467.04 1037.2C1467.71 1039.89 1468.68 1042.49 1469.95 1044.95C1472.3 1051.44 1469.95 1059.53 1474.08 1065.12C1475.65 1067.25 1478 1068.85 1479.68 1070.64C1480.64 1071.55 1481.29 1072.74 1481.54 1074.03C1481.79 1075.33 1481.62 1076.68 1481.06 1077.88C1479.89 1076.54 1478.33 1075.62 1476.6 1075.22C1474.88 1074.83 1473.07 1074.98 1471.44 1075.68C1468.26 1077.16 1465.64 1079.63 1463.98 1082.72C1462.71 1084.7 1461.74 1087.42 1463.24 1089.21C1463.83 1089.84 1464.54 1090.36 1465.32 1090.74C1472.1 1094.43 1478.2 1099.25 1483.37 1104.98V1104.98Z" fill="url(#paint38_linear_59:453)"/>
<path id="Vector_160" opacity="0.28" d="M1516.75 1059.58C1524.05 1033.97 1515.74 1009.16 1498.2 1004.16C1480.65 999.16 1460.51 1015.86 1453.21 1041.47C1445.92 1067.07 1454.22 1091.88 1471.77 1096.88C1489.31 1101.88 1509.45 1085.18 1516.75 1059.58Z" fill="white"/>
</g>
</g>
<defs>
<filter id="filter0_d_59:453" x="1427.58" y="947" width="247.424" height="249.73" filterUnits="userSpaceOnUse" color-interpolation-filters="sRGB">
<feFlood flood-opacity="0" result="BackgroundImageFix"/>
<feColorMatrix in="SourceAlpha" type="matrix" values="0 0 0 0 0 0 0 0 0 0 0 0 0 0 0 0 0 0 127 0" result="hardAlpha"/>
<feOffset dx="5" dy="5"/>
<feGaussianBlur stdDeviation="10"/>
<feComposite in2="hardAlpha" operator="out"/>
<feColorMatrix type="matrix" values="0 0 0 0 0 0 0 0 0 0 0 0 0 0 0 0 0 0 0.25 0"/>
<feBlend mode="normal" in2="BackgroundImageFix" result="effect1_dropShadow_59:453"/>
<feBlend mode="normal" in="SourceGraphic" in2="effect1_dropShadow_59:453" result="shape"/>
</filter>
<radialGradient id="paint0_radial_59:453" cx="0" cy="0" r="1" gradientUnits="userSpaceOnUse" gradientTransform="translate(-1.42866e+06 260928) scale(596453 330745)">
<stop offset="0.01" stop-color="#F3AF3D"/>
<stop offset="1" stop-color="#ED6E37"/>
</radialGradient>
<radialGradient id="paint1_radial_59:453" cx="0" cy="0" r="1" gradientUnits="userSpaceOnUse" gradientTransform="translate(1293.31 400.57) scale(1347.67 1348.07)">
<stop offset="0.01" stop-color="#ED6D37"/>
<stop offset="1"/>
</radialGradient>
<radialGradient id="paint2_radial_59:453" cx="0" cy="0" r="1" gradientUnits="userSpaceOnUse" gradientTransform="translate(766.949 837.524) scale(884.892 885.152)">
<stop stop-color="#F3B53D"/>
<stop offset="0.07" stop-color="#F2AB3C"/>
<stop offset="0.3" stop-color="#F08F3A"/>
<stop offset="0.53" stop-color="#EE7C38"/>
<stop offset="0.76" stop-color="#ED7037"/>
<stop offset="1" stop-color="#ED6C37"/>
</radialGradient>
<linearGradient id="paint3_linear_59:453" x1="-40611.8" y1="23602.7" x2="-39696.5" y2="23268.7" gradientUnits="userSpaceOnUse">
<stop offset="0.01" stop-color="#FEA7AF"/>
<stop offset="0.97" stop-color="#EA47AC"/>
</linearGradient>
<linearGradient id="paint4_linear_59:453" x1="-104763" y1="-10774.9" x2="-100555" y2="-9662.79" gradientUnits="userSpaceOnUse">
<stop offset="0.01" stop-color="#FEA7AF"/>
<stop offset="0.97" stop-color="#EA47AC"/>
</linearGradient>
<linearGradient id="paint5_linear_59:453" x1="485.25" y1="947.048" x2="349.144" y2="826.2" gradientUnits="userSpaceOnUse">
<stop offset="0.01" stop-color="#FEA7AF"/>
<stop offset="0.99" stop-color="#EA47AC" stop-opacity="0"/>
</linearGradient>
<linearGradient id="paint6_linear_59:453" x1="-18287.2" y1="15371.7" x2="-15445.3" y2="15371.7" gradientUnits="userSpaceOnUse">
<stop offset="0.01" stop-color="#3F3D56"/>
<stop offset="1" stop-color="#1D157C"/>
</linearGradient>
<linearGradient id="paint7_linear_59:453" x1="-20330.9" y1="22144.8" x2="-18582" y2="22144.8" gradientUnits="userSpaceOnUse">
<stop offset="0.01" stop-color="#FEA7AF"/>
<stop offset="0.99" stop-color="#EA47AC" stop-opacity="0"/>
</linearGradient>
<linearGradient id="paint8_linear_59:453" x1="-11991.9" y1="13826.3" x2="-11336.4" y2="13826.3" gradientUnits="userSpaceOnUse">
<stop offset="0.01" stop-color="#FEA7AF"/>
<stop offset="0.99" stop-color="#EA47AC" stop-opacity="0"/>
</linearGradient>
<linearGradient id="paint9_linear_59:453" x1="-31392.6" y1="25194.4" x2="-18025.6" y2="25194.4" gradientUnits="userSpaceOnUse">
<stop offset="0.01" stop-color="#FEA7AF"/>
<stop offset="0.99" stop-color="#EA47AC" stop-opacity="0"/>
</linearGradient>
<linearGradient id="paint10_linear_59:453" x1="-19045.8" y1="15817.9" x2="-14022.7" y2="15817.9" gradientUnits="userSpaceOnUse">
<stop offset="0.01" stop-color="#FEA7AF"/>
<stop offset="0.99" stop-color="#EA47AC" stop-opacity="0"/>
</linearGradient>
<linearGradient id="paint11_linear_59:453" x1="-10363.3" y1="10914.9" x2="-7548.36" y2="10914.9" gradientUnits="userSpaceOnUse">
<stop offset="0.01" stop-color="#FEA7AF"/>
<stop offset="0.99" stop-color="#EA47AC" stop-opacity="0"/>
</linearGradient>
<linearGradient id="paint12_linear_59:453" x1="-6260.1" y1="7015.02" x2="-5207.21" y2="7015.02" gradientUnits="userSpaceOnUse">
<stop offset="0.01" stop-color="#FEA7AF"/>
<stop offset="0.99" stop-color="#EA47AC" stop-opacity="0"/>
</linearGradient>
<linearGradient id="paint13_linear_59:453" x1="-33354.6" y1="29990.7" x2="-30538.8" y2="29990.7" gradientUnits="userSpaceOnUse">
<stop offset="0.01" stop-color="#FEA7AF"/>
<stop offset="0.99" stop-color="#EA47AC" stop-opacity="0"/>
</linearGradient>
<linearGradient id="paint14_linear_59:453" x1="-19902.8" y1="18746.8" x2="-18844.2" y2="18746.8" gradientUnits="userSpaceOnUse">
<stop offset="0.01" stop-color="#FEA7AF"/>
<stop offset="0.99" stop-color="#EA47AC" stop-opacity="0"/>
</linearGradient>
<radialGradient id="paint15_radial_59:453" cx="0" cy="0" r="1" gradientUnits="userSpaceOnUse" gradientTransform="translate(498.955 579.605) scale(213.271 213.333)">
<stop stop-color="#67219E"/>
<stop offset="0.01" stop-color="#6B27A1"/>
<stop offset="0.11" stop-color="#8D59B7"/>
<stop offset="0.22" stop-color="#AC86CA"/>
<stop offset="0.33" stop-color="#C6ABDA"/>
<stop offset="0.44" stop-color="#DACAE8"/>
<stop offset="0.56" stop-color="#EBE1F2"/>
<stop offset="0.69" stop-color="#F6F2F9"/>
<stop offset="0.83" stop-color="#FDFCFE"/>
<stop offset="1" stop-color="white"/>
</radialGradient>
<radialGradient id="paint16_radial_59:453" cx="0" cy="0" r="1" gradientUnits="userSpaceOnUse" gradientTransform="translate(-218215 115764) rotate(18.6851) scale(26683.1 26689.3)">
<stop stop-color="#67219E"/>
<stop offset="0.01" stop-color="#6B27A1"/>
<stop offset="0.11" stop-color="#8D59B7"/>
<stop offset="0.22" stop-color="#AC86CA"/>
<stop offset="0.33" stop-color="#C6ABDA"/>
<stop offset="0.44" stop-color="#DACAE8"/>
<stop offset="0.56" stop-color="#EBE1F2"/>
<stop offset="0.69" stop-color="#F6F2F9"/>
<stop offset="0.83" stop-color="#FDFCFE"/>
<stop offset="1" stop-color="white"/>
</radialGradient>
<radialGradient id="paint17_radial_59:453" cx="0" cy="0" r="1" gradientUnits="userSpaceOnUse" gradientTransform="translate(-148869 63244.1) rotate(-49.4883) scale(49237.3 27060.8)">
<stop stop-color="#67219E"/>
<stop offset="0.01" stop-color="#6B27A1"/>
<stop offset="0.11" stop-color="#8D59B7"/>
<stop offset="0.22" stop-color="#AC86CA"/>
<stop offset="0.33" stop-color="#C6ABDA"/>
<stop offset="0.44" stop-color="#DACAE8"/>
<stop offset="0.56" stop-color="#EBE1F2"/>
<stop offset="0.69" stop-color="#F6F2F9"/>
<stop offset="0.83" stop-color="#FDFCFE"/>
<stop offset="1" stop-color="white"/>
</radialGradient>
<radialGradient id="paint18_radial_59:453" cx="0" cy="0" r="1" gradientUnits="userSpaceOnUse" gradientTransform="translate(-138357 62331.7) rotate(-49.4883) scale(49237.2 27060.8)">
<stop stop-color="#67219E"/>
<stop offset="0.01" stop-color="#6B27A1"/>
<stop offset="0.11" stop-color="#8D59B7"/>
<stop offset="0.22" stop-color="#AC86CA"/>
<stop offset="0.33" stop-color="#C6ABDA"/>
<stop offset="0.44" stop-color="#DACAE8"/>
<stop offset="0.56" stop-color="#EBE1F2"/>
<stop offset="0.69" stop-color="#F6F2F9"/>
<stop offset="0.83" stop-color="#FDFCFE"/>
<stop offset="1" stop-color="white"/>
</radialGradient>
<radialGradient id="paint19_radial_59:453" cx="0" cy="0" r="1" gradientUnits="userSpaceOnUse" gradientTransform="translate(-146161 70744.1) rotate(-49.4883) scale(49237.3 27060.8)">
<stop stop-color="#67219E"/>
<stop offset="0.01" stop-color="#6B27A1"/>
<stop offset="0.11" stop-color="#8D59B7"/>
<stop offset="0.22" stop-color="#AC86CA"/>
<stop offset="0.33" stop-color="#C6ABDA"/>
<stop offset="0.44" stop-color="#DACAE8"/>
<stop offset="0.56" stop-color="#EBE1F2"/>
<stop offset="0.69" stop-color="#F6F2F9"/>
<stop offset="0.83" stop-color="#FDFCFE"/>
<stop offset="1" stop-color="white"/>
</radialGradient>
<radialGradient id="paint20_radial_59:453" cx="0" cy="0" r="1" gradientUnits="userSpaceOnUse" gradientTransform="translate(-119375 40186) rotate(-49.4883) scale(49237.3 20207.5)">
<stop stop-color="#67219E"/>
<stop offset="0.01" stop-color="#6B27A1"/>
<stop offset="0.11" stop-color="#8D59B7"/>
<stop offset="0.22" stop-color="#AC86CA"/>
<stop offset="0.33" stop-color="#C6ABDA"/>
<stop offset="0.44" stop-color="#DACAE8"/>
<stop offset="0.56" stop-color="#EBE1F2"/>
<stop offset="0.69" stop-color="#F6F2F9"/>
<stop offset="0.83" stop-color="#FDFCFE"/>
<stop offset="1" stop-color="white"/>
</radialGradient>
<radialGradient id="paint21_radial_59:453" cx="0" cy="0" r="1" gradientUnits="userSpaceOnUse" gradientTransform="translate(-108109 23392.5) rotate(-49.4883) scale(49237.3 20207.5)">
<stop stop-color="#67219E"/>
<stop offset="0.01" stop-color="#6B27A1"/>
<stop offset="0.11" stop-color="#8D59B7"/>
<stop offset="0.22" stop-color="#AC86CA"/>
<stop offset="0.33" stop-color="#C6ABDA"/>
<stop offset="0.44" stop-color="#DACAE8"/>
<stop offset="0.56" stop-color="#EBE1F2"/>
<stop offset="0.69" stop-color="#F6F2F9"/>
<stop offset="0.83" stop-color="#FDFCFE"/>
<stop offset="1" stop-color="white"/>
</radialGradient>
<linearGradient id="paint22_linear_59:453" x1="1357.72" y1="218.877" x2="1357.72" y2="587.113" gradientUnits="userSpaceOnUse">
<stop stop-color="#F3B53D"/>
<stop offset="1" stop-color="#ED6C37"/>
</linearGradient>
<radialGradient id="paint23_radial_59:453" cx="0" cy="0" r="1" gradientUnits="userSpaceOnUse" gradientTransform="translate(1227.56 511.599) rotate(35.448) scale(95.0058 95.015)">
<stop offset="0.01" stop-color="#A02CC2"/>
<stop offset="1" stop-color="#371582"/>
</radialGradient>
<radialGradient id="paint24_radial_59:453" cx="0" cy="0" r="1" gradientUnits="userSpaceOnUse" gradientTransform="translate(1239.49 543.905) rotate(35.4478) scale(45.455 23.246)">
<stop stop-color="#371582"/>
<stop offset="0.99" stop-color="#A02CC2"/>
</radialGradient>
<linearGradient id="paint25_linear_59:453" x1="1494.51" y1="320.194" x2="1494.51" y2="688.422" gradientUnits="userSpaceOnUse">
<stop stop-color="#F3B53D"/>
<stop offset="1" stop-color="#ED6C37"/>
</linearGradient>
<radialGradient id="paint26_radial_59:453" cx="0" cy="0" r="1" gradientUnits="userSpaceOnUse" gradientTransform="translate(-43889.9 28271.5) scale(2271.36 2197.91)">
<stop offset="0.01" stop-color="#A02CC2"/>
<stop offset="1" stop-color="#371582"/>
</radialGradient>
<radialGradient id="paint27_radial_59:453" cx="0" cy="0" r="1" gradientUnits="userSpaceOnUse" gradientTransform="translate(-35188 24392.8) scale(1583.07 1626.07)">
<stop offset="0.01" stop-color="#A02CC2"/>
<stop offset="1" stop-color="#371582"/>
</radialGradient>
<radialGradient id="paint28_radial_59:453" cx="0" cy="0" r="1" gradientUnits="userSpaceOnUse" gradientTransform="translate(-23344.6 -16094.3) rotate(35.4479) scale(825.415 49.075)">
<stop offset="0.01" stop-color="#A02CC2"/>
<stop offset="1" stop-color="#371582"/>
</radialGradient>
<radialGradient id="paint29_radial_59:453" cx="0" cy="0" r="1" gradientUnits="userSpaceOnUse" gradientTransform="translate(-27174 -19997.9) rotate(35.4479) scale(641.819 9.76331)">
<stop stop-color="#371582"/>
<stop offset="0.99" stop-color="#A02CC2"/>
</radialGradient>
<linearGradient id="paint30_linear_59:453" x1="1433.58" y1="141.991" x2="1433.58" y2="673.439" gradientUnits="userSpaceOnUse">
<stop stop-color="#F3B53D"/>
<stop offset="1" stop-color="#ED6C37"/>
</linearGradient>
<radialGradient id="paint31_radial_59:453" cx="0" cy="0" r="1" gradientUnits="userSpaceOnUse" gradientTransform="translate(1382.25 316.357) rotate(35.3704) scale(238.661 312.767)">
<stop stop-color="#67219E"/>
<stop offset="0.99" stop-color="#DE3DBF"/>
</radialGradient>
<linearGradient id="paint32_linear_59:453" x1="1432.92" y1="246.695" x2="1432.92" y2="661.598" gradientUnits="userSpaceOnUse">
<stop stop-color="#F3B53D"/>
<stop offset="1" stop-color="#ED6C37"/>
</linearGradient>
<linearGradient id="paint33_linear_59:453" x1="1424.63" y1="248.856" x2="1424.63" y2="647.773" gradientUnits="userSpaceOnUse">
<stop stop-color="#F3B53D"/>
<stop offset="1" stop-color="#ED6C37"/>
</linearGradient>
<linearGradient id="paint34_linear_59:453" x1="1309.71" y1="554.157" x2="1309.71" y2="707.55" gradientUnits="userSpaceOnUse">
<stop stop-color="#F3B53D"/>
<stop offset="1" stop-color="#ED6C37"/>
</linearGradient>
<linearGradient id="paint35_linear_59:453" x1="415.5" y1="509.5" x2="546" y2="641" gradientUnits="userSpaceOnUse">
<stop stop-color="#E6E6E6"/>
<stop offset="1" stop-color="#CBCBCB"/>
</linearGradient>
<linearGradient id="paint36_linear_59:453" x1="1435.39" y1="992.2" x2="1669.49" y2="1148.79" gradientUnits="userSpaceOnUse">
<stop stop-color="#59D977"/>
<stop offset="1" stop-color="#0052BB"/>
</linearGradient>
<linearGradient id="paint37_linear_59:453" x1="1490.15" y1="993.057" x2="1692.71" y2="1091.37" gradientUnits="userSpaceOnUse">
<stop stop-color="#598B63"/>
<stop offset="1" stop-color="#0052BB"/>
</linearGradient>
<linearGradient id="paint38_linear_59:453" x1="11418.2" y1="6939.13" x2="13720.2" y2="7610.47" gradientUnits="userSpaceOnUse">
<stop stop-color="#598B63"/>
<stop offset="1" stop-color="#0052BB"/>
</linearGradient>
<clipPath id="clip0_59:453">
<rect width="1920" height="1080" fill="white"/>
</clipPath>
</defs>
</svg>
